<svg width="144" height="23" viewBox="0 0 144 23" fill="none" xmlns="http://www.w3.org/2000/svg">
<path d="M13.8975 0C22.9387 9.71664e-05 26.8374 4.9034 27.1963 8.68262C27.5551 12.0074 26.1922 14.8304 23.8242 16.3135C21.8151 17.5572 19.3272 18.442 16.5527 18.8008L17.2695 22.6279L10.3574 18.6094C4.09053 17.5569 0 13.9446 0 9.56738C0.000162077 6.9125 1.65025 4.30511 4.1377 2.53516C6.67316 0.765118 10.2378 0 13.8975 0ZM9.1123 3.25293C7.74903 3.25299 6.62471 3.65949 5.76367 4.56836C4.87866 5.38162 4.47266 6.45835 4.47266 7.75C4.47269 8.6828 4.78292 9.52022 5.42871 10.166C6.0745 10.8118 6.84017 11.1699 7.79688 11.1699C8.13175 11.1699 8.56264 11.0981 9.08887 10.9307C9.54314 10.7394 10.0212 10.5721 10.3799 10.333C10.4992 10.2614 10.6189 10.2141 10.667 10.2139C10.8583 10.2139 10.9062 10.3335 10.9062 10.501C10.9062 10.5965 10.8827 10.6686 10.835 10.7881C10.8112 10.812 10.811 10.8595 10.7871 10.9072L10.6191 11.4336C10.3082 12.2468 9.66227 13.012 8.77734 13.7295C7.82074 14.4469 6.88824 14.9253 5.93164 15.0928C5.78812 15.1167 5.66794 15.1411 5.57227 15.165C5.50079 15.1889 5.42935 15.2128 5.40527 15.2129C5.40527 15.2129 5.35749 15.2605 5.35742 15.3799C5.35742 15.6191 5.42924 15.667 5.59668 15.667H5.83594L6.67285 15.5479C8.68208 15.2369 10.3329 14.3517 11.6963 12.9404C13.0596 11.5292 13.7051 9.92622 13.7051 8.15625C13.705 6.69728 13.2981 5.57294 12.4131 4.61621C11.5281 3.73138 10.4756 3.25293 9.1123 3.25293ZM19.1826 3.22949C17.8432 3.22953 16.6951 3.63596 15.8818 4.35352C14.997 5.19059 14.5899 6.24278 14.5898 7.53418C14.5898 8.5388 14.8771 9.42449 15.5469 10.0703C16.1927 10.7161 16.9583 11.0742 17.915 11.0742C18.2738 11.0742 18.6808 11.0273 19.207 10.8359C19.7331 10.6446 20.1632 10.4764 20.498 10.2373C20.6175 10.1895 20.7372 10.1184 20.7852 10.1182C20.9526 10.1182 21.0244 10.2378 21.0244 10.4053C21.0244 10.5008 21.0009 10.5729 20.9531 10.6924C20.9293 10.74 20.9291 10.7638 20.9053 10.8115L20.7373 11.3379C20.4502 12.175 19.7805 12.9402 18.8955 13.6338C17.9389 14.3512 17.0064 14.8057 16.0498 14.9971C15.9063 15.021 15.7861 15.0454 15.6904 15.0693C15.5953 15.0931 15.5475 15.117 15.5234 15.1172C15.5234 15.1172 15.4757 15.1648 15.4756 15.2842C15.4756 15.5234 15.5235 15.5713 15.7148 15.5713H15.9541L16.791 15.4521C18.8001 15.1651 20.4501 14.2797 21.8135 12.8447C23.1769 11.4335 23.8232 9.83059 23.8232 8.06055C23.7754 6.67335 23.3683 5.54949 22.4834 4.59277C21.5984 3.70775 20.5221 3.22949 19.1826 3.22949Z" fill="white"/>
<path d="M8.51507 3.82709C7.86925 3.82709 7.39086 4.06628 7.03207 4.54467C6.67328 5.02306 6.43408 5.66888 6.43408 6.4343C6.43408 7.48676 6.67328 8.3957 7.1995 9.08936C7.72573 9.80695 8.37156 10.094 9.20874 10.094C9.85456 10.094 10.4525 9.85478 10.8592 9.37639C11.3376 8.898 11.505 8.30002 11.505 7.60636C11.505 6.60174 11.218 5.64496 10.62 4.87954C10.0459 4.18588 9.35225 3.82709 8.51507 3.82709Z" fill="white"/>
<path d="M17.1023 4.54467C17.4611 4.06628 17.9873 3.82709 18.5853 3.82709C19.4225 3.82709 20.1162 4.11412 20.7142 4.87954C21.3121 5.64496 21.5992 6.60174 21.5992 7.60636C21.5992 8.32394 21.4317 8.898 20.9534 9.37639C20.475 9.85478 19.9487 10.094 19.3029 10.094C18.4657 10.094 17.8199 9.80695 17.2937 9.08936C16.7674 8.37178 16.5283 7.48676 16.5283 6.4343C16.5043 5.66888 16.7435 5.02306 17.1023 4.54467Z" fill="white"/>
<path d="M90.8696 2.53564C92.161 2.12912 93.5241 1.88978 94.8872 2.00928C97.5423 2.00928 99.7436 2.65512 101.394 3.89893C103.044 5.14272 103.881 6.79361 103.881 8.87451C103.881 11.1228 103.068 13.0127 101.346 14.5435C100.078 15.7155 98.4037 16.4561 96.3706 16.7192H92.6157C90.6782 16.48 89.0749 15.8103 87.8071 14.8296C86.157 13.4902 85.3198 11.6964 85.3198 9.52002C85.3198 8.56324 85.5587 7.63012 85.9653 6.67334C86.3959 5.71656 86.9704 4.951 87.688 4.30518C88.5012 3.53984 89.5781 2.94224 90.8696 2.53564ZM94.1226 2.75049C92.3525 2.75049 91.0364 3.27712 90.0317 4.28174C89.0512 5.31024 88.5728 6.79315 88.5728 8.61084C88.5728 10.7875 89.1707 12.5819 90.4146 13.9214C91.5866 15.2847 93.1895 15.9307 95.1509 16.0503C96.9209 16.0503 98.3563 15.4518 99.4087 14.3276C100.461 13.2034 101.011 11.6722 101.011 9.78271C101.011 8.70654 100.772 7.65431 100.293 6.60205C99.8151 5.5496 99.1687 4.71176 98.3315 4.11377C97.1597 3.22904 95.7248 2.75056 94.1226 2.75049Z" fill="white"/>
<path d="M43.8198 2.46367C43.8198 2.58327 43.8677 2.70287 43.9873 2.75071C44.1069 2.79854 44.3939 2.8703 44.8244 2.91814C45.542 3.03773 46.0683 3.20517 46.3553 3.44437C46.6423 3.68356 46.7619 4.16195 46.7619 4.80777V13.1557V14.1124C46.7619 14.7104 46.6423 15.1649 46.4749 15.4041C46.3074 15.6433 45.8769 15.8825 45.2311 16.0499L44.8723 16.2891L44.9201 16.3369C44.968 16.4565 45.0876 16.5761 45.2789 16.5761H52.0242C52.5504 16.5761 52.8614 16.4565 52.8614 16.2891C52.8614 16.0499 52.6222 16.0021 52.2155 16.0021C51.5697 16.0021 51.0435 15.8825 50.6129 15.5954C50.2063 15.3084 49.9671 14.8779 49.8475 14.3516L49.7279 13.2992V4.42507C49.7279 3.82708 49.8475 3.42044 49.9671 3.25301C50.1346 3.08557 50.5651 2.89422 51.1392 2.84638C51.3066 2.84638 51.4262 2.79854 51.498 2.72678C51.5458 2.67895 51.5458 2.60719 51.5458 2.48759C51.5458 2.32015 51.3784 2.32015 51.0674 2.32015C50.589 2.32015 44.2025 2.32016 44.0829 2.27232C43.8677 2.17664 43.8198 2.22448 43.8198 2.46367ZM52.383 2.65502C52.383 2.36799 52.5504 2.2484 52.9092 2.2484C52.957 2.2484 54.9424 2.24839 57.4778 2.22448C61.879 2.20056 67.8589 2.17663 68.0981 2.17663C68.5764 2.17663 68.8635 2.34407 68.8635 2.65502L68.9113 3.42045C68.9113 3.46829 68.9352 3.56397 68.9592 3.70748C68.9831 3.851 69.007 4.01843 69.0309 4.25763C69.0309 4.32939 69.0548 4.37723 69.0548 4.42507C69.1027 4.7121 69.1505 4.92737 69.1505 5.14265C69.1505 5.38184 69.0309 5.50144 68.7917 5.50144C68.6243 5.50144 68.4329 5.334 68.3851 5.09481C68.2177 4.44898 67.8589 3.9706 67.3326 3.68356C66.8064 3.39653 66.0888 3.27693 65.0842 3.27693C63.7208 3.27693 62.9554 3.32477 62.5966 3.51612C62.3095 3.68356 62.1182 4.11411 62.1182 4.75994V12.6294C62.1182 13.8015 62.3574 14.6387 62.764 15.117C63.1707 15.5954 63.9361 15.8825 65.0124 15.9542C65.2995 15.9542 65.4908 16.0738 65.4908 16.313C65.4908 16.4805 65.3234 16.5522 65.0842 16.5522H64.7254L57.3821 16.6001C57.0234 16.6479 56.8559 16.6479 56.7363 16.6479C56.4493 16.6479 56.3297 16.5283 56.3297 16.3609C56.3297 16.1934 56.3775 16.1217 56.4493 16.0738C56.4732 16.0738 56.4971 16.0738 56.545 16.0499C56.6406 16.026 56.7602 16.0021 56.9277 16.0021C57.5735 15.9542 58.0997 15.7629 58.4585 15.4041C58.8173 15.0453 58.9847 14.5191 58.9847 13.9211V13.4427V4.16195C58.9847 3.63572 58.5781 3.32477 57.8605 3.32477C56.1383 3.32477 54.9663 3.44436 54.3205 3.6118C53.9138 3.77924 53.555 3.97059 53.4354 4.13803C53.3158 4.30547 53.0766 4.78385 52.8375 5.54927L52.7179 5.83631C52.67 6.12334 52.4787 6.24294 52.3112 6.24294C52.0242 6.24294 51.9046 6.1951 51.9046 5.95591C51.9046 5.81239 51.9524 5.59712 51.9764 5.334C51.9764 5.26224 52.0003 5.19049 52.0242 5.11873L52.072 4.23371L52.2395 3.27693L52.383 2.65502ZM69.5332 6.26686C70.1312 5.2144 70.8966 4.30546 71.9012 3.6118C73.5038 2.48759 75.4413 1.96136 77.6419 1.96136C79.2445 1.96136 80.6558 2.24839 81.8517 2.79854L82.6889 3.20517C82.8563 3.25301 83.0477 3.32477 83.1673 3.32477C83.3347 3.32477 83.5261 3.27693 83.5739 3.15733L83.861 2.79854C83.8849 2.79854 83.9088 2.79854 83.9327 2.77462C83.9806 2.7507 84.0284 2.72678 84.1002 2.72678C84.3872 2.72678 84.5068 2.96598 84.5068 3.44437L84.746 6.41038C84.7938 6.64957 84.7938 6.81701 84.7938 7.00836C84.7938 7.29539 84.6742 7.415 84.435 7.415C84.2676 7.415 84.1958 7.36716 84.148 7.1758C84.1002 6.88877 83.861 6.45821 83.4304 5.93199C83.0238 5.40576 82.5932 4.92737 82.2584 4.64034C80.7275 3.34869 79.0771 2.67894 77.2353 2.67894C75.6327 2.67894 74.2693 3.20517 73.2647 4.28155C72.26 5.334 71.7338 6.76917 71.7338 8.49137C71.7338 10.7398 72.571 12.5098 74.2214 13.8732C75.4652 14.83 76.8286 15.3562 78.3117 15.3562C79.1967 15.3562 80.0817 15.1888 81.0863 14.83C82.0909 14.4712 82.8563 14.1124 83.3826 13.5862L84.2197 12.8686C84.3393 12.749 84.4589 12.7012 84.5785 12.7012C84.746 12.7012 84.8177 12.749 84.8177 12.9404C84.8177 13.2274 84.4589 13.658 83.8131 14.3038C82.0431 15.9064 79.7947 16.7197 77.1874 16.7197C74.6998 16.7197 72.6427 16.0738 71.0401 14.7583C69.4375 13.4666 68.6721 11.7444 68.6721 9.66342C68.6482 8.51529 68.9592 7.31931 69.5332 6.26686ZM132.944 2.46367C132.944 2.29623 132.776 2.22448 132.465 2.22448H126.725C126.485 2.22448 126.318 2.22448 126.318 2.39191C126.318 2.51151 126.438 2.63111 126.725 2.63111C127.897 2.67895 128.734 3.03774 129.14 3.58789C129.547 4.18587 129.738 5.23832 129.738 6.88876C129.738 8.20433 129.691 9.5199 129.643 10.9311C129.643 11.0507 129.643 11.1464 129.619 11.266C129.619 11.6726 129.499 11.9118 129.332 11.9118C129.164 11.9118 128.734 11.6726 128.16 11.1464C128.16 11.1464 118.64 2.46367 118.472 2.34407C118.305 2.22448 118.114 2.22448 117.827 2.22448C117.707 2.17664 113.449 2.22448 113.449 2.22448C113.258 2.22448 113.114 2.27232 113.043 2.36799V2.67894C113.114 2.72678 113.21 2.75071 113.401 2.75071C115.363 2.8703 116.367 3.99451 116.367 6.12334V10.6202L116.32 13.1078C116.32 13.9928 116.2 14.5908 115.913 15.0692C115.626 15.5476 115.148 15.8346 114.55 15.9542C114.31 16.0021 114.191 16.1217 114.191 16.2413C114.191 16.4087 114.31 16.4805 114.55 16.4805H120.458C120.697 16.4805 120.864 16.3609 120.864 16.1934C120.864 16.026 120.745 15.9542 120.506 15.9064C119.094 15.7868 118.257 15.3802 117.97 14.6147C117.683 13.8972 117.563 12.4381 117.563 10.3092V6.29078V6.00374C117.563 5.71671 117.683 5.52535 117.85 5.52535C117.898 5.52535 118.09 5.5732 118.257 5.81239L130.025 16.4087C130.073 16.4326 130.097 16.4565 130.121 16.4805C130.169 16.5283 130.217 16.5522 130.289 16.5761H130.719C130.791 16.5283 130.863 16.4326 130.863 16.3369L130.91 5.64495V5.11873C130.91 3.70748 131.437 2.8703 132.561 2.75071C132.585 2.75071 132.633 2.72678 132.657 2.72678C132.848 2.65503 132.944 2.63111 132.944 2.46367ZM132.465 5.95591C132.465 4.78386 132.944 3.82708 133.877 3.06166C134.618 2.46367 135.455 2.12879 136.412 1.93744H138.66C138.995 1.98528 139.33 2.08096 139.665 2.17663L140.55 2.46367C140.909 2.58327 141.196 2.63111 141.387 2.63111C141.507 2.63111 141.626 2.63111 141.746 2.58327L142.224 2.41583C142.344 2.36799 142.392 2.36799 142.464 2.36799C142.703 2.36799 142.751 2.48759 142.751 2.72678C142.751 2.72678 143.109 6.09942 143.109 6.14726C143.109 6.50605 142.99 6.62565 142.751 6.62565C142.583 6.62565 142.464 6.45822 142.392 6.21902C142.153 5.21441 141.507 4.37723 140.502 3.68356C139.498 2.96598 138.421 2.63111 137.321 2.63111C136.555 2.63111 135.91 2.8703 135.312 3.27693C134.714 3.68356 134.427 4.16195 134.427 4.75994C134.427 5.28616 134.666 5.71671 135.192 6.12334C135.551 6.41037 136.555 6.84093 138.278 7.36715C140.359 8.08474 141.698 8.73056 142.368 9.37638C143.133 10.1418 143.54 11.0747 143.54 12.1989V12.2467C143.54 13.4905 142.942 14.543 141.89 15.428C140.765 16.313 139.521 16.7914 138.038 16.7914C137.44 16.7914 136.508 16.6718 135.192 16.313C134.833 16.2413 134.57 16.1695 134.331 16.1217C134.164 16.0738 134.02 16.0499 133.9 16.026C133.494 15.9782 133.255 15.9064 133.183 15.8586C133.087 15.8107 132.393 13.2992 132.178 12.3902V11.7683C132.25 11.6248 132.37 11.5531 132.537 11.5531C132.657 11.5531 132.704 11.6009 132.776 11.7922C133.183 12.9643 133.9 13.9689 134.977 14.8061C136.053 15.6433 137.106 16.0499 138.23 16.0499C139.115 16.0499 139.88 15.7629 140.598 15.2127C141.244 14.6865 141.602 14.0885 141.602 13.3709C141.602 12.8447 141.435 12.3663 141.076 12.0075C140.717 11.6487 140.119 11.2899 139.234 11.0029L137.273 10.2853C135.383 9.6395 134.14 8.99367 133.494 8.39569C132.824 7.72594 132.465 6.96052 132.465 5.95591ZM112.349 16.313C112.349 16.0738 112.11 16.026 111.703 16.026C111.057 16.026 110.531 15.9064 110.101 15.6194C109.694 15.3323 109.455 14.9018 109.335 14.3755L109.216 13.2992V4.42507C109.216 3.82708 109.287 3.42044 109.455 3.25301C109.622 3.08557 110.053 2.89422 110.627 2.84638C110.794 2.84638 110.914 2.79854 110.986 2.72678C111.033 2.67895 111.033 2.60719 111.033 2.48759C111.033 2.32015 110.794 2.32015 110.507 2.32015C110.029 2.32015 103.714 2.32016 103.523 2.27232C103.475 2.22448 103.355 2.27232 103.355 2.51151C103.355 2.63111 103.403 2.7507 103.523 2.79854C103.642 2.84638 103.929 2.91814 104.36 2.96598C105.077 3.08558 105.604 3.25301 105.891 3.4922C106.178 3.7314 106.297 4.20979 106.297 4.85561V13.2035V14.1603C106.297 14.7583 106.178 15.2127 106.01 15.4519C105.843 15.6911 105.412 15.9303 104.767 16.0977L104.408 16.3369V16.3848C104.432 16.4565 104.503 16.5283 104.551 16.5522H112.038C112.253 16.5044 112.349 16.4087 112.349 16.313Z" fill="white"/>
<path d="M28.5354 2.27197C28.5354 2.27197 36.2852 2.22467 37.051 2.39209C38.8688 2.39209 40.3516 2.51196 41.4758 3.15771C42.6 3.80354 43.1262 4.64042 43.1262 5.69287C43.1262 6.93648 42.4092 7.74963 41.0461 8.22803C40.7355 8.34751 40.5679 8.46721 40.5676 8.51514C40.5198 8.63473 40.6874 8.70656 41.0461 8.75439C42.0984 8.87405 42.9356 9.28054 43.5813 9.87842C44.0597 10.309 44.3465 10.8356 44.4661 11.4575V12.8442C44.2986 13.8728 43.7246 14.7106 42.8157 15.3804C41.6915 16.1457 40.1603 16.5522 38.2229 16.5522H29.0862C29.0144 16.5044 28.9661 16.4087 28.9661 16.313C28.9661 16.1456 29.0863 16.0737 29.3254 16.0259C29.4934 16.0259 30.2577 16.0257 30.6165 15.6196C30.7361 15.4283 30.9036 15.0213 30.9036 14.3755C30.9036 13.347 30.904 11.7442 30.8801 10.0698C30.8801 8.25221 30.8557 6.3868 30.8557 5.09521C30.8557 4.73646 30.7843 4.20986 30.4973 3.85107C30.0907 3.18133 29.0138 2.89404 28.7268 2.89404L28.1292 2.84619C27.9617 2.84617 27.842 2.72651 27.842 2.55908C27.8422 2.39178 27.9624 2.27197 28.2493 2.27197H28.5354ZM35.9749 9.25732C35.3769 9.25732 34.4918 9.25663 34.0852 9.73486C33.7982 10.0937 33.7981 11.027 33.7981 11.7446C33.7742 12.3186 33.7981 12.9882 33.8459 13.8013C33.8459 14.0165 33.8699 14.232 33.8938 14.4712C33.9416 15.4757 35.0181 15.7631 36.8596 15.7153C38.701 15.7153 39.993 15.3564 40.6389 14.6392C41.1651 14.0413 41.4767 13.3473 41.4768 12.5103C41.4768 10.8598 40.5911 9.8544 38.7493 9.49561C37.6733 9.32823 37.2663 9.25732 35.9749 9.25732ZM34.9329 3.08545C34.5711 3.08883 34.3068 3.11569 34.1096 3.27686C33.8226 3.51602 33.7503 4.11399 33.7502 4.68799V7.27197H33.7747C33.7747 7.67838 33.894 7.98936 34.1331 8.15674C34.4201 8.32416 34.851 8.396 35.425 8.396H38.0325C39.5151 8.27629 40.2082 7.55848 40.2083 6.26709C40.2083 5.21463 39.8023 4.37678 38.9651 3.73096C38.128 3.13307 37.0754 3.08546 35.7122 3.08545H34.9329Z" fill="white"/>
</svg>
