<svg width="118" height="26" viewBox="0 0 118 26" fill="none" xmlns="http://www.w3.org/2000/svg">
<path d="M14.0076 17.6236L11.4871 18.8619V9.56436L14.0076 8.326V17.6236ZM17.4294 15.9429L14.9089 17.1813V7.88373L17.4294 6.64536V15.9429ZM18.3307 15.5007V6.20309L20.8513 4.96472V14.2623L18.3307 15.5007Z" fill="white"/>
<path d="M10.6054 16.3557V18.857L1.24609 14.2623V11.761L10.6054 16.3557ZM10.6054 12.9551V15.4564L1.24609 10.8617V8.3604L10.6054 12.9551ZM10.6054 9.55945V12.0608L1.24609 7.46602V4.96472L10.6054 9.55945Z" fill="white"/>
<path d="M26.8044 2.01746V16.3762H34.1513C37.5974 16.3762 39.7991 14.8207 39.7991 12.3558C39.7991 10.537 38.6744 9.10114 36.9034 8.74217C38.3872 8.3114 39.3444 7.0909 39.3444 5.65503C39.3444 3.45335 37.1906 2.04141 33.8402 2.04141H26.8044V2.01746ZM31.0403 5.22425H33.6249C34.4625 5.22425 34.9889 5.67895 34.9889 6.42082C34.9889 7.18662 34.4625 7.66526 33.6249 7.66526H31.0403V5.22425ZM31.0403 10.5609H33.6249C34.7018 10.5609 35.3958 11.0395 35.3958 11.8293C35.3958 12.6669 34.7257 13.1934 33.6249 13.1934H31.0403V10.5609Z" fill="white"/>
<path d="M46.6199 2.01746H42.3601V16.3762H46.6199V2.01746Z" fill="white"/>
<path d="M60.2371 5.41571V2.01746H49.2048V5.41571H52.5791V16.3762H56.8628V5.41571H60.2371Z" fill="white"/>
<path d="M69.462 1.89832C65.0108 1.89832 61.7322 4.98546 61.7322 9.17343C61.7322 13.4093 64.939 16.5682 69.3184 16.5682C71.4961 16.5682 73.8414 15.4913 75.3969 13.7922L72.932 11.1597C71.9508 12.1649 70.6107 12.811 69.5098 12.811C67.5714 12.811 66.0877 11.2076 66.0877 9.10165C66.0877 6.9957 67.5714 5.41623 69.5098 5.41623C70.7064 5.41623 72.0226 6.18203 72.932 7.33073L75.3969 4.43505C73.9371 2.87952 71.6158 1.89832 69.462 1.89832Z" fill="white"/>
<path d="M84.2755 1.89832C79.7764 1.89832 76.45 4.96152 76.45 9.19735C76.45 13.4332 79.7764 16.5682 84.2755 16.5682C88.7746 16.5682 92.101 13.4093 92.101 9.19735C92.101 4.98545 88.7746 1.89832 84.2755 1.89832ZM84.3473 5.46408C86.2378 5.46408 87.7455 7.04356 87.7455 9.22131C87.7455 11.3991 86.2378 13.0024 84.3473 13.0024C82.4567 13.0024 80.8294 11.3751 80.8294 9.22131C80.8294 7.06749 82.4328 5.46408 84.3473 5.46408Z" fill="white"/>
<path d="M98.7771 2.01746H94.5173V16.3762H98.7771V2.01746Z" fill="white"/>
<path d="M114.965 16.3762V2.01746H111.064V10.0344L104.986 2.01746H101.348V16.3762H105.249V8.3832L111.328 16.3762H114.965Z" fill="white"/>
<path d="M30.8653 22.4736V18.8983H29.6091L28.8223 20.7619L28.0355 18.8983H26.7793V22.4736H27.8146V20.5134L28.422 22.1285H29.195L29.8024 20.5134V22.4736H30.8653Z" fill="white"/>
<path d="M34.0135 21.9775L34.1929 22.4882H35.4491L33.9997 18.913H32.7849L31.2803 22.4882H32.495L32.6745 21.9775H34.0135ZM33.7236 21.1216H32.9782L33.3509 20.0725L33.7236 21.1216Z" fill="white"/>
<path d="M38.0709 20.5966V21.4249C37.8915 21.4939 37.7258 21.5491 37.6016 21.5491C37.1322 21.5491 36.801 21.1902 36.801 20.6933C36.801 20.2101 37.1322 19.8512 37.6016 19.8512C37.8915 19.8512 38.2504 20.003 38.485 20.2239L39.1477 19.4095C38.7611 19.0782 38.1538 18.8573 37.6016 18.8573C36.4282 18.8573 35.5862 19.6303 35.5862 20.6795C35.5862 21.7424 36.4006 22.5154 37.5188 22.5154C38.0295 22.5154 38.6921 22.3221 39.0786 22.0599V20.5828H38.0709V20.5966Z" fill="white"/>
<path d="M42.157 21.9775L42.3365 22.4882H43.5927L42.1432 18.913H40.9285L39.4238 22.4882H40.6386L40.818 21.9775H42.157ZM41.8672 21.1216H41.1217L41.4944 20.0725L41.8672 21.1216Z" fill="white"/>
<path d="M47.0996 19.6437V18.8983H43.9108V19.8094H45.5121L43.8418 21.742V22.4874H47.1272V21.5763H45.4293L47.0996 19.6437Z" fill="white"/>
<path d="M48.8795 18.8983H47.6924V22.4736H48.8795V18.8983Z" fill="white"/>
<path d="M53.0625 22.4736V18.8983H51.9996V20.7343L50.5916 18.8983H49.5977V22.4736H50.6744V20.6514L52.0824 22.4736H53.0625Z" fill="white"/>
<path d="M56.8034 19.7956V18.8983H53.7803V22.4736H56.8586V21.5763H54.9674V21.1346H56.6377V20.2373H54.9674V19.7956H56.8034Z" fill="white"/>
</svg>
