<svg width="114" height="30" viewBox="0 0 114 30" fill="none" xmlns="http://www.w3.org/2000/svg">
<path d="M18.2685 21.3456L13.0351 23.6231V23.405C11.9933 23.6715 10.9272 23.8169 9.83689 23.8654C4.91845 23.8169 1.01761 21.2487 0.969152 18.1958V17.0571C2.56825 19.4073 5.8876 20.9821 9.83689 20.9095C11.1452 20.9579 12.4294 20.7883 13.6893 20.4491L14.1496 19.3104C12.7443 19.7465 11.2906 19.9888 9.83689 19.9888C4.91845 20.013 1.01761 17.4447 0.969152 14.3192V13.3985C2.56825 15.5791 5.86337 17.1298 9.83689 17.0571C11.5571 17.154 13.2774 16.839 14.828 16.1364L15.0461 14.9976C13.4228 15.7972 11.6298 16.2091 9.81266 16.1364C4.89422 16.2091 0.993381 13.6408 0.944924 10.4668V9.54615C2.54402 11.7752 5.86337 13.3258 9.81266 13.3985C11.9448 13.3258 14.0527 12.7928 15.9668 11.8237L16.1848 10.4668C14.61 11.6298 12.284 12.4051 9.83689 12.5021C4.89422 12.3809 0.993381 9.81266 0.944924 6.59023C0.993381 3.5374 4.89422 0.94492 9.81266 0.920691C12.7443 0.969149 15.458 2.01099 17.0813 3.65855L17.2509 3.90083H18.3897L18.2201 3.63432C16.5967 1.45373 13.3743 0 9.78844 0C4.36118 0 0 3.00437 0 6.59023V18.4139C0.19383 21.9271 4.43387 24.7861 9.78844 24.7861C13.3743 24.7618 16.5483 23.3566 18.2685 21.3456Z" fill="white"/>
<path d="M16.1365 29.3653L17.9778 21.5637L12.696 23.8654L15.9184 10.3215H9.71582L11.3149 3.65857H31.0614L29.4623 10.3215H23.0417L21.6606 14.0043L28.7839 11.0241L16.1365 29.3653ZM19.3589 19.9403L18.4382 24.5196L26.0218 13.0351L19.8192 15.7972L22.5813 9.37657H28.7839L29.9226 4.55503H12.0176L10.8788 9.37657H17.0814L14.1012 22.2178L19.3589 19.9403Z" fill="white"/>
<path d="M43.3211 8.11668C43.3211 8.45588 43.2242 8.77085 43.1031 9.0616C42.9577 9.35235 42.7639 9.61886 42.5216 9.83692C41.9643 10.273 41.2859 10.5153 40.5833 10.4669C40.1956 10.4911 39.808 10.4184 39.4445 10.273C39.0811 10.1277 38.7661 9.88538 38.4996 9.59463C37.9908 9.01314 37.7485 8.18936 37.7485 7.14753V6.73563C37.7243 6.12991 37.8454 5.54842 38.0877 4.99116C38.3058 4.50658 38.645 4.11892 39.0811 3.82818C39.6141 3.53743 40.2199 3.39206 40.8256 3.44052C41.4313 3.48898 42.0128 3.70703 42.4974 4.07046C43.0062 4.53081 43.2969 5.18499 43.3454 5.8634H41.9401C41.9401 5.49997 41.819 5.16076 41.5767 4.89425C41.3102 4.67619 40.9467 4.57927 40.6075 4.6035C40.4137 4.57927 40.1956 4.62773 40.0018 4.72465C39.808 4.82156 39.6626 4.9427 39.5415 5.1123C39.2992 5.45151 39.178 5.98454 39.178 6.68718V7.19598C39.178 7.94708 39.2992 8.48011 39.5172 8.81931C39.6384 8.98891 39.7837 9.13429 39.9776 9.20697C40.1714 9.30389 40.3652 9.32812 40.5833 9.32812C40.9467 9.35235 41.2859 9.25543 41.5524 9.03737C41.7947 8.79508 41.9159 8.45588 41.9159 8.11668H43.3211Z" fill="white"/>
<path d="M49.8872 7.12327C49.9114 7.72899 49.7903 8.33471 49.5237 8.89197C49.3057 9.37655 48.9423 9.78843 48.5061 10.0792C48.0458 10.3457 47.5127 10.4911 46.9797 10.4911C46.4467 10.4911 45.9137 10.3457 45.4533 10.0792C44.993 9.78843 44.6295 9.40077 44.4115 8.9162C44.1692 8.35893 44.0238 7.77744 44.048 7.17172V6.83252C44.0238 6.2268 44.1692 5.62108 44.4115 5.03959C44.6295 4.55501 44.993 4.14313 45.4533 3.85238C45.9137 3.58586 46.4467 3.44049 46.9797 3.44049C47.5127 3.44049 48.0458 3.58586 48.5061 3.85238C48.9665 4.14313 49.3057 4.55501 49.548 5.03959C49.7903 5.59685 49.9356 6.20257 49.9114 6.80829V7.12327H49.8872ZM48.4577 6.80829C48.4577 6.08143 48.3365 5.54839 48.07 5.16073C47.9489 4.99113 47.7793 4.84576 47.5854 4.74884C47.3916 4.65193 47.1735 4.60347 46.9797 4.60347C46.7617 4.60347 46.5436 4.65193 46.374 4.74884C46.1802 4.84576 46.0106 4.99113 45.8894 5.16073C45.6229 5.52417 45.5018 6.08143 45.5018 6.78407V7.12327C45.4775 7.68053 45.5987 8.26202 45.8894 8.7466C46.0106 8.9162 46.1802 9.06157 46.374 9.15848C46.5678 9.2554 46.7859 9.30386 47.0039 9.30386C47.222 9.30386 47.4401 9.2554 47.6339 9.15848C47.8277 9.06157 47.9973 8.9162 48.1185 8.7466C48.3608 8.38316 48.5061 7.8259 48.5061 7.12327V6.80829H48.4577Z" fill="white"/>
<path d="M52.4067 10.3699H51.0015V3.51318H52.4067V10.3699Z" fill="white"/>
<path d="M59.288 10.3699H57.8827L55.1449 5.86338V10.3699H53.7396V3.51318H55.1449L57.907 8.01974V3.51318H59.3122V10.3699H59.288Z" fill="white"/>
<path d="M65.5389 4.67617H63.431V10.3942H62.0499V4.67617H59.9905V3.53741H65.5631V4.67617H65.5389Z" fill="white"/>
<path d="M70.4817 7.41402H67.7681V9.25541H70.9421V10.3942H66.3386V3.53741H70.9179V4.67617H67.7439V6.2995H70.4575V7.41402H70.4817Z" fill="white"/>
<path d="M73.1953 9.23118H76.1997V10.3699H71.79V3.51318H73.1953V9.23118Z" fill="white"/>
<path d="M81.1181 7.41402H78.4045V9.25541H81.5784V10.3942H76.975V3.53741H81.5542V4.67617H78.3802V6.2995H81.0939V7.41402H81.1181Z" fill="white"/>
<path d="M87.8535 9.52191C87.5628 9.86111 87.1993 10.1034 86.7874 10.2245C86.3029 10.3941 85.7698 10.4911 85.2368 10.4668C84.6795 10.4911 84.1465 10.3457 83.6861 10.0792C83.2258 9.81265 82.8624 9.42499 82.6443 8.94042C82.3778 8.40738 82.2566 7.80166 82.2809 7.19594V6.73559C82.2566 6.12987 82.3778 5.52416 82.6201 4.9669C82.8381 4.48232 83.1773 4.09466 83.6135 3.82814C84.0738 3.56162 84.6068 3.41625 85.1399 3.44048C85.9636 3.44048 86.5936 3.63431 87.054 4.02197C87.5385 4.45809 87.8293 5.06381 87.8777 5.71799H86.4967C86.4725 5.37878 86.3271 5.08804 86.0848 4.84575C85.8425 4.65192 85.5275 4.555 85.1883 4.57923C84.9703 4.57923 84.7522 4.60346 84.5584 4.70038C84.3646 4.79729 84.1949 4.94266 84.0738 5.11227C83.8315 5.4757 83.6861 6.00873 83.6861 6.71137V7.14749C83.6861 7.87435 83.8315 8.40738 84.098 8.77082C84.2434 8.96465 84.413 9.11002 84.6311 9.20694C84.8491 9.30385 85.0672 9.35231 85.3095 9.32808C85.8425 9.32808 86.2059 9.20693 86.4482 8.98887V7.80166H85.1641V6.75983H87.8535V9.52191Z" fill="white"/>
<path d="M91.5123 7.87437H90.3978V10.3942H88.9926V3.53741H91.5366C92.3361 3.53741 92.9661 3.70702 93.4022 4.07045C93.6203 4.26428 93.7899 4.48234 93.911 4.74885C94.0321 5.01537 94.0806 5.30612 94.0564 5.59686C94.0806 6.00875 93.9595 6.42064 93.7414 6.75985C93.5233 7.09905 93.1841 7.34134 92.8207 7.51094L94.2987 10.3215V10.3942H92.7722L91.5123 7.87437ZM90.3978 6.71139H91.5366C91.8273 6.73562 92.1423 6.6387 92.3604 6.44487C92.4573 6.34796 92.53 6.22681 92.5784 6.10567C92.6269 5.98452 92.6511 5.83915 92.6511 5.69378C92.6511 5.54841 92.6269 5.42726 92.6026 5.28189C92.5542 5.16074 92.4815 5.0396 92.3846 4.91846C92.2634 4.82154 92.1423 4.74886 91.9969 4.7004C91.8516 4.65194 91.7062 4.62771 91.5366 4.65194H90.3978V6.71139Z" fill="white"/>
<path d="M98.9989 8.96466H96.5276L96.0672 10.3699H94.5651L97.1091 3.51318H98.4174L100.986 10.3699H99.4835L98.9989 8.96466ZM96.9153 7.82591H98.6355L97.7633 5.25766L96.9153 7.82591Z" fill="white"/>
<path d="M103.045 7.97129V10.3942H101.64V3.53741H104.305C104.765 3.53741 105.226 3.63433 105.662 3.82816C106.025 3.99776 106.34 4.28851 106.558 4.62771C106.776 4.99114 106.873 5.40303 106.873 5.81492C106.897 6.10567 106.825 6.42064 106.703 6.68716C106.582 6.95368 106.413 7.19597 106.17 7.3898C105.71 7.77746 105.08 7.97129 104.256 7.97129H103.045ZM103.045 6.8083H104.305C104.62 6.83253 104.911 6.73562 105.153 6.54179C105.25 6.44487 105.322 6.32373 105.395 6.20258C105.444 6.08144 105.468 5.93607 105.468 5.79069C105.468 5.64532 105.444 5.49995 105.395 5.35457C105.347 5.2092 105.274 5.08806 105.177 4.96692C105.08 4.87 104.935 4.77309 104.789 4.72463C104.644 4.67617 104.499 4.65194 104.353 4.65194H103.069V6.8083H103.045Z" fill="white"/>
<path d="M113.415 10.3699H112.01V7.43825H109.248V10.3699H107.842V3.51318H109.248V6.2995H112.01V3.51318H113.415V10.3699Z" fill="white"/>
<path d="M42.1582 17.7112H40.4137V22.4601H39.2265V17.7112H37.5062V16.7663H42.1582V17.7112Z" fill="white"/>
<path d="M43.8542 18.6804C43.9996 18.5108 44.1692 18.3654 44.363 18.2685C44.5568 18.1716 44.7749 18.1231 44.993 18.1231C45.9137 18.1231 46.374 18.6562 46.3982 19.7222V22.4359H45.2595V19.7465C45.2837 19.5526 45.211 19.3588 45.1141 19.2134C45.0414 19.1407 44.9687 19.0923 44.8718 19.0681C44.7749 19.0438 44.678 19.0196 44.5811 19.0438C44.4357 19.0438 44.2903 19.0681 44.1692 19.1407C44.048 19.2134 43.9269 19.3103 43.8542 19.4315V22.4359H42.7155V16.4029H43.8542V18.6804Z" fill="white"/>
<path d="M49.1846 22.557C48.8939 22.557 48.6274 22.5328 48.3608 22.4358C48.0943 22.3389 47.852 22.1936 47.6582 21.9997C47.4644 21.8059 47.2948 21.5636 47.1979 21.2971C47.1009 21.0306 47.0525 20.7641 47.0525 20.4733V20.3522C47.0525 19.9645 47.1252 19.5768 47.2948 19.2134C47.4402 18.8984 47.6824 18.6319 47.9974 18.4381C48.3124 18.2443 48.6758 18.1474 49.0392 18.1716C49.3058 18.1474 49.5481 18.1958 49.7903 18.2927C50.0326 18.3896 50.2507 18.535 50.4203 18.7288C50.7595 19.0923 50.9291 19.6253 50.9291 20.2795V20.7398H48.2397C48.2639 21.0063 48.3851 21.2244 48.5789 21.4182C48.7727 21.5878 49.015 21.6848 49.2815 21.6605C49.4754 21.6605 49.6692 21.6363 49.863 21.5394C50.0326 21.4667 50.2022 21.3213 50.3234 21.1759L50.8806 21.8059C50.711 22.0482 50.4688 22.242 50.2022 22.3632C49.863 22.4843 49.5238 22.557 49.1846 22.557ZM49.0635 19.068C48.9666 19.068 48.8697 19.0923 48.7727 19.1165C48.6758 19.165 48.6031 19.2134 48.5304 19.2861C48.3851 19.4799 48.2882 19.698 48.2639 19.9403H49.8388V19.8434C49.8388 19.6253 49.7661 19.4315 49.645 19.2619C49.5723 19.1892 49.4754 19.1407 49.3785 19.0923C49.2573 19.068 49.1604 19.068 49.0635 19.068Z" fill="white"/>
<path d="M53.8851 22.4601V19.0439H53.2551V18.2201H53.8851V17.8567C53.8608 17.6628 53.9093 17.4448 53.982 17.2509C54.0547 17.0571 54.1516 16.8875 54.297 16.7421C54.6119 16.4756 55.0238 16.3303 55.4357 16.3545C55.6295 16.3545 55.8234 16.3787 56.0172 16.4272V17.2994C55.8961 17.2752 55.7992 17.2509 55.678 17.2752C55.2419 17.2752 55.0481 17.469 55.0481 17.8809V18.2201H55.8961V19.0439H55.0238V22.4601H53.8851Z" fill="white"/>
<path d="M58.9972 22.0482C58.8519 22.2179 58.6823 22.3632 58.4884 22.4359C58.2946 22.5328 58.0766 22.5571 57.8585 22.5571C57.6647 22.5813 57.4708 22.5328 57.3012 22.4844C57.1316 22.4117 56.962 22.3148 56.8167 22.1694C56.5501 21.8544 56.429 21.4425 56.4532 21.0306V18.2443H57.592V20.9822C57.592 21.4183 57.7858 21.6364 58.1977 21.6364C58.3431 21.6606 58.5127 21.6121 58.658 21.5637C58.8034 21.491 58.9246 21.3941 58.9972 21.2487V18.2443H60.136V22.4844H59.0699L58.9972 22.0482Z" fill="white"/>
<path d="M62.3166 17.1782V18.2201H63.0434V19.0438H62.3166V21.1517C62.3166 21.2729 62.3408 21.394 62.4135 21.491C62.4619 21.5394 62.5104 21.5636 62.5831 21.5879C62.6315 21.6121 62.7042 21.6121 62.7769 21.6121C62.898 21.6121 62.995 21.6121 63.1161 21.5879V22.4359C62.898 22.5086 62.6558 22.5328 62.4377 22.5328C61.6382 22.5328 61.2263 22.1209 61.2263 21.3213V19.0438H60.5963V18.2201H61.2263V17.1782H62.3166Z" fill="white"/>
<path d="M66.2175 22.0482C66.0721 22.2179 65.9025 22.3632 65.7087 22.4359C65.5148 22.5328 65.2968 22.5571 65.0787 22.5571C64.8849 22.5813 64.691 22.5328 64.5214 22.4844C64.3518 22.4117 64.1822 22.3148 64.0369 22.1694C63.7704 21.8544 63.6492 21.4425 63.6734 21.0306V18.2443H64.8122V20.9822C64.8122 21.4183 65.006 21.6364 65.4179 21.6364C65.5633 21.6606 65.7329 21.6121 65.8783 21.5637C66.0236 21.491 66.1448 21.3941 66.2175 21.2487V18.2443H67.3562V22.4844H66.2901L66.2175 22.0482Z" fill="white"/>
<path d="M70.5544 19.2861C70.409 19.2619 70.2879 19.2619 70.1425 19.2619C69.7064 19.2619 69.4399 19.4073 69.2945 19.698V22.4844H68.1558V18.2443H69.2218L69.2461 18.7531C69.343 18.5835 69.4641 18.4381 69.6337 18.317C69.8033 18.2201 69.9971 18.1474 70.191 18.1716C70.3121 18.1716 70.4333 18.1959 70.5544 18.2201V19.2861Z" fill="white"/>
<path d="M72.977 22.557C72.6862 22.557 72.4197 22.5328 72.1532 22.4358C71.8867 22.3389 71.6444 22.1936 71.4506 21.9997C71.2567 21.8059 71.0871 21.5636 70.9902 21.2971C70.8933 21.0306 70.8448 20.7641 70.8448 20.4733V20.3522C70.8448 19.9645 70.9175 19.5768 71.0871 19.2134C71.2325 18.8984 71.4748 18.6319 71.7898 18.4381C72.1048 18.2443 72.4682 18.1474 72.8316 18.1716C73.0981 18.1474 73.3404 18.1958 73.5827 18.2927C73.825 18.3896 74.0431 18.535 74.2127 18.7288C74.5519 19.0923 74.7215 19.6253 74.7215 20.2795V20.7398H72.0078C72.0321 21.0063 72.1532 21.2244 72.347 21.4182C72.5409 21.5878 72.7832 21.6848 73.0497 21.6605C73.2435 21.6605 73.4373 21.6363 73.6312 21.5394C73.8008 21.4667 73.9704 21.3213 74.0915 21.1759L74.6488 21.8059C74.4792 22.0482 74.2369 22.242 73.9704 22.3632C73.6312 22.4843 73.3162 22.557 72.977 22.557ZM72.8316 19.068C72.7347 19.068 72.6378 19.0923 72.5409 19.1165C72.4439 19.165 72.3713 19.2134 72.2986 19.2861C72.1532 19.4799 72.0563 19.698 72.0321 19.9403H73.6069V19.8434C73.6069 19.6253 73.5342 19.4315 73.4131 19.2619C73.3404 19.1892 73.2435 19.1407 73.1466 19.0923C73.0497 19.068 72.9528 19.068 72.8316 19.068Z" fill="white"/>
<path d="M77.193 20.3038C77.193 19.9161 77.2657 19.5284 77.4353 19.1892C77.5807 18.8743 77.8229 18.6077 78.1379 18.4139C78.4529 18.2201 78.8163 18.1474 79.204 18.1474C79.4705 18.1474 79.7128 18.1716 79.9551 18.2685C80.1974 18.3655 80.4154 18.4866 80.6093 18.6804C80.9969 19.0681 81.1907 19.5769 81.215 20.1099V20.4007C81.2392 20.9822 81.0454 21.5394 80.6819 21.9756C80.2943 22.3632 79.7612 22.557 79.2282 22.557C78.6709 22.557 78.1621 22.339 77.7745 21.9756C77.3868 21.5394 77.193 20.9579 77.2172 20.3764V20.3038H77.193ZM78.3075 20.4007C78.2833 20.7157 78.356 21.0549 78.5256 21.3214C78.5983 21.4183 78.6952 21.491 78.8163 21.5637C78.9375 21.6121 79.0586 21.6363 79.1798 21.6606C79.3009 21.6606 79.422 21.6363 79.5432 21.5879C79.6643 21.5394 79.7612 21.4425 79.8339 21.3456C80.0035 21.0306 80.1004 20.6914 80.0762 20.328C80.1004 20.013 80.0035 19.6738 79.8339 19.4073C79.7612 19.3104 79.6643 19.2135 79.5432 19.165C79.422 19.1166 79.3009 19.0923 79.1798 19.0923C79.0586 19.0923 78.9375 19.1166 78.8163 19.165C78.6952 19.2135 78.5983 19.3104 78.5256 19.4073C78.3802 19.698 78.2833 20.0372 78.3075 20.4007Z" fill="white"/>
<path d="M82.2082 22.4601V19.0439H81.5782V18.2201H82.2082V17.8567C82.184 17.6628 82.2324 17.4448 82.3051 17.2509C82.3778 17.0571 82.4747 16.8875 82.6201 16.7421C82.9351 16.4756 83.3469 16.3303 83.7588 16.3545C83.9527 16.3545 84.1465 16.3787 84.3403 16.4272V17.2994C84.2192 17.2752 84.1223 17.2509 84.0011 17.2752C83.565 17.2752 83.3712 17.469 83.3712 17.8809V18.2201H84.2192V19.0439H83.3712V22.4601H82.2082Z" fill="white"/>
<path d="M87.8535 18.22L87.8778 18.7046C88.0231 18.535 88.217 18.3896 88.4108 18.2927C88.6289 18.1958 88.8469 18.1474 89.0892 18.1716C89.3315 18.1474 89.5496 18.1958 89.7434 18.317C89.9372 18.4381 90.1068 18.6077 90.2037 18.8258C90.3491 18.6077 90.5429 18.4381 90.761 18.3412C90.9791 18.22 91.2213 18.1716 91.4879 18.1958C91.6817 18.1716 91.8755 18.22 92.0451 18.2685C92.2147 18.3412 92.3843 18.4381 92.5055 18.5835C92.7478 18.9469 92.8689 19.3588 92.8447 19.7949V22.5085H91.7059V19.7949C91.7301 19.6011 91.6817 19.4315 91.5605 19.2619C91.4879 19.1892 91.4152 19.1407 91.3183 19.1165C91.2213 19.0923 91.1487 19.068 91.0517 19.0923C90.9064 19.0923 90.7368 19.1165 90.6156 19.2134C90.4945 19.3103 90.3976 19.4315 90.3491 19.5768V22.4843H89.2104V19.7707C89.2346 19.5768 89.1861 19.383 89.065 19.2376C88.9923 19.165 88.9196 19.1407 88.8469 19.0923C88.75 19.068 88.6773 19.0438 88.5804 19.068C88.435 19.068 88.2897 19.0923 88.1685 19.165C88.0474 19.2376 87.9505 19.3346 87.8778 19.4799V22.4843H86.739V18.2443H87.8535V18.22Z" fill="white"/>
<path d="M93.5474 20.3038C93.5474 19.9161 93.62 19.5284 93.7897 19.1892C93.935 18.8743 94.1773 18.6077 94.4923 18.4139C94.8073 18.2201 95.1707 18.1474 95.5584 18.1474C95.8249 18.1474 96.0672 18.1716 96.3094 18.2685C96.5517 18.3655 96.7698 18.4866 96.9636 18.6804C97.3513 19.0681 97.5451 19.5769 97.5693 20.1099V20.4007C97.5936 20.9822 97.3997 21.5394 97.0363 21.9756C96.6486 22.3632 96.1156 22.557 95.5826 22.557C95.0495 22.557 94.5165 22.339 94.1289 21.9756C93.7412 21.5394 93.5474 20.9579 93.5716 20.3764V20.3038H93.5474ZM94.6861 20.4007C94.6619 20.7157 94.7346 21.0549 94.9042 21.3214C94.9769 21.4183 95.0738 21.491 95.1949 21.5637C95.3161 21.6121 95.4372 21.6363 95.5584 21.6606C95.6795 21.6848 95.8006 21.6363 95.9218 21.5879C96.0429 21.5394 96.1398 21.4425 96.2125 21.3456C96.3821 21.0306 96.479 20.6914 96.4548 20.328C96.479 20.013 96.3821 19.6738 96.2125 19.4073C96.1398 19.3104 96.0429 19.2135 95.9218 19.165C95.8006 19.1166 95.6795 19.0923 95.5584 19.0923C95.4372 19.0923 95.3161 19.1166 95.1949 19.165C95.0738 19.2135 94.9769 19.3104 94.9042 19.4073C94.7346 19.698 94.6619 20.0372 94.6861 20.4007Z" fill="white"/>
<path d="M99.3138 18.2201L99.338 18.7046C99.4834 18.5108 99.6772 18.3654 99.8711 18.2685C100.089 18.1716 100.307 18.1231 100.549 18.1231C100.743 18.0989 100.913 18.1474 101.107 18.1958C101.276 18.2685 101.446 18.3654 101.567 18.5108C101.809 18.85 101.931 19.2619 101.906 19.698V22.4359H100.768V19.7222C100.792 19.5284 100.719 19.3346 100.622 19.1892C100.549 19.1408 100.477 19.0923 100.38 19.0438C100.283 19.0196 100.186 18.9954 100.113 19.0196C99.968 19.0196 99.8226 19.0438 99.7015 19.1165C99.5803 19.1892 99.4592 19.2861 99.4107 19.4315V22.4359H98.272V18.1958H99.3138V18.2201Z" fill="white"/>
<path d="M104.741 22.557C104.45 22.557 104.184 22.5328 103.917 22.4358C103.651 22.3389 103.408 22.1936 103.215 21.9997C103.021 21.8059 102.851 21.5636 102.754 21.2971C102.657 21.0306 102.609 20.7641 102.609 20.4733V20.3522C102.609 19.9645 102.682 19.5768 102.851 19.2134C102.997 18.8984 103.239 18.6319 103.554 18.4381C103.869 18.2443 104.232 18.1474 104.596 18.1716C104.862 18.1474 105.104 18.1958 105.347 18.2927C105.589 18.3896 105.807 18.535 105.977 18.7288C106.316 19.0923 106.485 19.6253 106.485 20.2795V20.7398H103.772C103.796 21.0063 103.917 21.2244 104.111 21.4182C104.305 21.5878 104.547 21.6848 104.814 21.6605C105.008 21.6605 105.201 21.6363 105.395 21.5394C105.565 21.4667 105.734 21.3213 105.856 21.1759L106.413 21.8059C106.243 22.0482 106.001 22.242 105.734 22.3632C105.395 22.4843 105.056 22.557 104.741 22.557ZM104.596 19.068C104.499 19.068 104.402 19.0923 104.305 19.1165C104.208 19.165 104.135 19.2134 104.063 19.2861C103.917 19.4799 103.82 19.698 103.796 19.9403H105.371V19.8434C105.371 19.6253 105.298 19.4315 105.177 19.2619C105.104 19.1892 105.008 19.1407 104.911 19.0923C104.814 19.068 104.693 19.068 104.596 19.068Z" fill="white"/>
<path d="M108.642 20.861L109.417 18.2201H110.629L108.933 23.1143L108.836 23.3324C108.739 23.5747 108.569 23.7927 108.351 23.9381C108.133 24.0835 107.867 24.1561 107.6 24.1561C107.43 24.1561 107.261 24.1319 107.091 24.0835V23.2355H107.261C107.43 23.2355 107.6 23.2112 107.745 23.1385C107.867 23.0659 107.939 22.9447 107.988 22.8236L108.133 22.4844L106.655 18.2201H107.867L108.642 20.861Z" fill="white"/>
</svg>
