<svg width="116" height="21" viewBox="0 0 116 21" fill="none" xmlns="http://www.w3.org/2000/svg">
<path d="M17.8185 12.2689C17.4802 12.4756 17.0856 12.5131 16.7849 12.344C16.4091 12.1185 16.1836 11.6112 16.1836 10.9159V8.79249C16.1836 7.77776 15.789 7.0449 15.1125 6.85699C13.9663 6.51875 13.1019 7.92809 12.7824 8.45424L10.753 11.7051V7.70259C10.7342 6.78183 10.4335 6.23688 9.86978 6.06776C9.49396 5.95502 8.93022 6.01139 8.38527 6.8382L3.85659 14.0916C3.25527 12.9453 2.93582 11.6675 2.93582 10.3709C2.93582 5.9926 6.44978 2.44106 10.753 2.44106C15.0562 2.44106 18.5701 5.9926 18.5701 10.3709V10.3897V10.4085C18.6077 11.2541 18.3446 11.9306 17.8185 12.2689ZM20.2989 10.3709V10.3522V10.3334C20.2801 5.01545 15.9957 0.674683 10.753 0.674683C5.49143 0.674683 1.20703 5.01545 1.20703 10.3709C1.20703 15.7077 5.49143 20.0672 10.753 20.0672C13.177 20.0672 15.4696 19.1464 17.2359 17.474C17.593 17.1358 17.6118 16.5908 17.2735 16.2338C16.9541 15.8768 16.4091 15.858 16.0521 16.1774C16.0521 16.1774 16.0521 16.1774 16.0333 16.1962C14.6052 17.5492 12.6885 18.3196 10.7154 18.3196C8.40407 18.3196 6.33703 17.3049 4.9089 15.6889L8.98659 9.14952V12.1749C8.98659 13.6218 9.55033 14.0916 10.0201 14.2231C10.4899 14.3547 11.204 14.2607 11.9744 13.0393L14.2105 9.4126C14.2857 9.29985 14.3421 9.1871 14.4173 9.11193V10.9535C14.4173 12.3064 14.9622 13.3963 15.9018 13.9225C16.7474 14.4111 17.8185 14.3547 18.7017 13.8097C19.7915 13.0957 20.3741 11.8555 20.2989 10.3709ZM33.6031 7.06369C33.8286 7.19523 34.0353 7.51468 34.0353 7.79655C34.0353 8.24754 33.6595 8.62337 33.2273 8.62337C33.1145 8.62337 33.0206 8.58578 32.9266 8.56699C32.4192 8.19117 31.7803 7.94688 31.1039 7.94688C29.5066 7.94688 28.4167 9.24348 28.4167 10.8595C28.4167 12.4756 29.5254 13.7534 31.1039 13.7534C31.8931 13.7534 32.6071 13.4339 33.1333 12.9266C33.2648 12.8326 33.434 12.7762 33.6031 12.7762C34.0353 12.7762 34.3735 13.1145 34.3735 13.5467C34.3735 13.8285 34.2044 14.0728 33.9977 14.2044C33.2273 14.862 32.1937 15.2942 31.1226 15.2942C28.6798 15.2942 26.6879 13.2836 26.6879 10.8031C26.6879 8.3227 28.6798 6.31205 31.1226 6.31205C32.0246 6.29325 32.889 6.57512 33.6031 7.06369ZM38.0754 8.94282C39.7478 8.94282 41.1384 10.3522 41.1384 12.0997C41.1384 13.8285 39.729 15.313 38.0754 15.313C36.3278 15.313 34.8809 13.8473 34.8809 12.0997C34.8809 10.3522 36.3278 8.94282 38.0754 8.94282ZM38.0566 13.7534C38.7895 13.7534 39.4096 13.0581 39.4096 12.1185C39.4096 11.179 38.7895 10.5777 38.0566 10.5777C37.2674 10.5777 36.6097 11.1602 36.6097 12.1185C36.6097 13.0393 37.2674 13.7534 38.0566 13.7534ZM42.1907 14.3359V9.90117C42.1907 9.4126 42.5665 9.01798 43.0551 9.01798C43.5248 9.01798 43.9195 9.4126 43.9195 9.90117V14.3359C43.9195 14.8245 43.5248 15.2191 43.0551 15.2191C42.5853 15.2191 42.1907 14.8057 42.1907 14.3359ZM42.0591 7.34556C42.0591 6.76303 42.5101 6.31205 43.0551 6.31205C43.6188 6.31205 44.0698 6.78183 44.0698 7.34556C44.0698 7.9093 43.6188 8.36029 43.0551 8.36029C42.4913 8.3415 42.0591 7.89051 42.0591 7.34556ZM47.2267 11.9306V14.3359C47.2267 14.8245 46.8321 15.2191 46.3623 15.2191C45.8925 15.2191 45.4979 14.8245 45.4979 14.3359V9.69446C45.4979 9.31864 45.7986 9.01798 46.1744 9.01798C46.5502 9.01798 46.8321 9.33743 46.8321 9.69446C47.5274 9.03677 48.1475 8.94282 48.73 8.94282C50.4588 8.94282 51.2292 10.2394 51.2292 11.7239V14.3359C51.2292 14.8245 50.8346 15.2191 50.3648 15.2191C49.8951 15.2191 49.5004 14.8245 49.5004 14.3359V11.9306C49.5004 11.179 49.4065 10.5401 48.3166 10.5401C47.5462 10.5401 47.2267 11.179 47.2267 11.9306ZM56.829 12.8514C56.6223 12.8514 56.4908 12.7574 56.378 12.6259L54.3674 10.4461V14.3359C54.3674 14.8245 53.9728 15.2191 53.503 15.2191C53.0332 15.2191 52.6386 14.8245 52.6386 14.3359V6.6315C52.695 6.49996 52.8265 6.406 52.958 6.406C53.1084 6.406 53.2399 6.53754 53.3339 6.6315L56.5471 10.2394C56.6411 10.3522 56.7539 10.4085 56.829 10.4085C56.8854 10.4085 57.0169 10.3522 57.1109 10.2394L60.3242 6.6315C60.4181 6.53754 60.5309 6.406 60.7 6.406C60.8503 6.406 60.9819 6.49996 61.0195 6.6315V14.3359C61.0195 14.8245 60.6436 15.2191 60.1551 15.2191C59.6853 15.2191 59.2907 14.8245 59.2907 14.3359V10.4461L57.28 12.6259C57.1297 12.7574 56.9981 12.8514 56.829 12.8514ZM65.1347 13.7534C65.9052 13.7534 66.5629 13.0581 66.5629 12.1185C66.5629 11.179 65.8864 10.5589 65.1347 10.5589C64.3831 10.5589 63.763 11.1978 63.763 12.1185C63.763 13.0205 64.3643 13.7534 65.1347 13.7534ZM66.9763 14.5426L66.9387 14.3359C66.6004 14.9936 65.5294 15.2942 64.8529 15.2942C63.2368 15.2942 62.0342 13.8285 62.0342 12.0809C62.0342 10.3522 63.2556 8.92402 64.9468 8.92402C65.2287 8.92402 66.2058 8.99919 66.9575 9.88238L66.9951 9.67567C66.9951 9.29985 67.2769 8.99919 67.6528 8.99919C68.0286 8.99919 68.3292 9.31864 68.3292 9.67567V14.5238C68.3292 14.8996 68.0286 15.2003 67.6528 15.2003C67.2581 15.2191 66.9763 14.8996 66.9763 14.5426ZM73.0834 10.5401H72.8955C71.8056 10.5964 71.5989 11.2166 71.5989 11.9306V14.3359C71.5989 14.8245 71.2043 15.2191 70.7345 15.2191C70.2647 15.2191 69.8701 14.8245 69.8701 14.3359V9.69446C69.8701 9.31864 70.1708 9.01798 70.5466 9.01798C70.9224 9.01798 71.2043 9.33743 71.2043 9.69446C71.8432 9.09315 72.3694 8.96161 72.8955 8.94282H73.0646C73.478 8.94282 73.8539 9.29985 73.8539 9.75084C73.8726 10.1642 73.4968 10.5401 73.0834 10.5401ZM79.7543 13.9225C79.8295 14.054 79.8858 14.1856 79.8858 14.3359C79.8858 14.7869 79.4724 15.2003 79.0214 15.2003C78.7208 15.2003 78.4577 14.9748 78.251 14.7117L76.2591 12.4004V14.3171C76.2591 14.8057 75.8645 15.2003 75.3947 15.2003C74.925 15.2003 74.5303 14.8057 74.5303 14.3171V7.2704C74.5303 6.78183 74.9062 6.38721 75.3947 6.38721C75.8833 6.38721 76.2591 6.78183 76.2591 7.2704V11.6675L78.251 9.46897C78.4577 9.24348 78.702 8.99919 79.0026 8.99919C79.4348 8.99919 79.8295 9.39381 79.8295 9.8448C79.8295 9.97634 79.7919 10.1267 79.7167 10.2394L78.1383 11.9682L79.7543 13.9225ZM83.1367 10.5589C82.6669 10.5589 81.8965 10.8031 81.8965 11.536H84.3957C84.3769 10.8031 83.5877 10.5589 83.1367 10.5589ZM85.3917 12.6447H81.8965C81.8965 13.6782 82.8924 13.8473 83.3246 13.8473C83.6441 13.8473 84.0951 13.7909 84.4521 13.6218C84.5648 13.5467 84.734 13.4903 84.9031 13.4903C85.2789 13.4903 85.5984 13.8097 85.5984 14.2044C85.5984 14.4674 85.4292 14.6929 85.2225 14.8245C84.6964 15.2191 84.0011 15.313 83.3434 15.313C81.5958 15.313 80.1489 14.3735 80.1489 12.1749C80.1489 10.4461 81.0321 8.94282 83.0991 8.94282C84.7716 8.94282 86.0306 10.0327 86.0681 11.9682C86.0681 12.3252 85.7675 12.6447 85.3917 12.6447ZM90.2022 15.2942H89.7324C88.417 15.2942 87.6466 14.7117 87.6466 12.6635V10.5401H87.1956C86.7822 10.5401 86.4252 10.1642 86.4252 9.75084C86.4252 9.29985 86.801 8.94282 87.1956 8.94282H87.6466V7.30798C87.6466 6.81941 88.0224 6.42479 88.511 6.42479C88.9808 6.42479 89.3754 6.81941 89.3754 7.30798V8.94282H90.0895C90.5029 8.94282 90.8599 9.29985 90.8599 9.75084C90.8599 10.1642 90.4841 10.5401 90.0895 10.5401H89.3754V12.3252C89.3754 13.5091 89.4318 13.7534 89.9579 13.7534H90.2022C90.6156 13.7534 90.9726 14.0916 90.9726 14.5238C90.9726 14.9372 90.6156 15.2942 90.2022 15.2942ZM98.5643 7.06369C98.7898 7.19523 98.9965 7.51468 98.9965 7.79655C98.9965 8.24754 98.6207 8.62337 98.1885 8.62337C98.0757 8.62337 97.9818 8.58578 97.8878 8.56699C97.3805 8.19117 96.7416 7.94688 96.0651 7.94688C94.4678 7.94688 93.3779 9.24348 93.3779 10.8595C93.3779 12.4756 94.4866 13.7534 96.0651 13.7534C96.8543 13.7534 97.5684 13.4339 98.0945 12.9266C98.2261 12.8326 98.3952 12.7762 98.5643 12.7762C98.9965 12.7762 99.3347 13.1145 99.3347 13.5467C99.3347 13.8285 99.1656 14.0728 98.9589 14.2044C98.1885 14.862 97.155 15.2942 96.0839 15.2942C93.641 15.2942 91.6491 13.2836 91.6491 10.8031C91.6491 8.3227 93.641 6.31205 96.0839 6.31205C96.9858 6.29325 97.869 6.57512 98.5643 7.06369ZM102.943 13.7534C103.713 13.7534 104.371 13.0581 104.371 12.1185C104.371 11.179 103.694 10.5589 102.943 10.5589C102.172 10.5589 101.571 11.1978 101.571 12.1185C101.571 13.0205 102.191 13.7534 102.943 13.7534ZM104.784 14.5426L104.747 14.3359C104.408 14.9936 103.337 15.2942 102.661 15.2942C101.045 15.2942 99.8421 13.8285 99.8421 12.0809C99.8421 10.3522 101.064 8.92402 102.755 8.92402C103.037 8.92402 104.014 8.99919 104.765 9.88238L104.803 9.67567C104.803 9.29985 105.085 8.99919 105.461 8.99919C105.836 8.99919 106.137 9.31864 106.137 9.67567V14.5238C106.137 14.8996 105.836 15.2003 105.461 15.2003C105.066 15.2191 104.784 14.8996 104.784 14.5426ZM110.854 13.7534C111.624 13.7534 112.226 13.0205 112.226 12.1185C112.226 11.179 111.605 10.5589 110.854 10.5589C110.083 10.5589 109.426 11.179 109.426 12.1185C109.426 13.0581 110.083 13.7534 110.854 13.7534ZM109.426 14.7869V16.9855C109.426 17.474 109.031 17.8686 108.561 17.8686C108.091 17.8686 107.697 17.474 107.697 16.9855V9.69446C107.697 9.31864 107.997 9.01798 108.373 9.01798C108.749 9.01798 109.031 9.33743 109.031 9.76963C109.67 9.11193 110.459 8.94282 111.06 8.94282C112.733 8.94282 113.973 10.3522 113.973 12.0997C113.973 13.8285 112.789 15.313 111.154 15.313C110.647 15.2942 109.895 15.1439 109.426 14.7869Z" fill="white"/>
</svg>
