<svg width="109" height="26" viewBox="0 0 109 26" fill="none" xmlns="http://www.w3.org/2000/svg">
<path d="M19.0333 12.6891L12.6887 19.0336H25.3778L19.0333 12.6891Z" fill="white"/>
<path d="M6.34455 12.689L0 6.34448V19.0336L6.34455 12.689Z" fill="white"/>
<path d="M19.0333 12.689L25.3778 6.34448H12.6887L19.0333 12.689Z" fill="white"/>
<path d="M12.6884 6.34456L19.033 0H6.34387L12.6884 6.34456Z" fill="white"/>
<path d="M19.0333 25.3783L25.3778 19.0337H12.6887L19.0333 25.3783Z" fill="white"/>
<path d="M6.34455 25.3783L12.6891 19.0337H0L6.34455 25.3783Z" fill="white"/>
<path d="M19.0333 0L12.6887 6.34456H25.3778L19.0333 0Z" fill="white"/>
<path d="M0 6.34456H12.6891L6.34455 0L0 6.34456Z" fill="white"/>
<path d="M12.6884 19.0337L6.34387 25.3783H19.033L12.6884 19.0337Z" fill="white"/>
<path d="M6.34455 12.6891L0 19.0336H12.6891L6.34455 12.6891Z" fill="white"/>
<path d="M12.6891 6.34448H0L6.34455 12.689L12.6891 6.34448Z" fill="white"/>
<path fill-rule="evenodd" clip-rule="evenodd" d="M32.746 15.0222C33.0817 15.0222 33.3334 14.9215 33.5013 14.7368C33.6691 14.5522 33.7531 14.2836 33.7531 13.9144H36.0693L36.0861 13.9647C36.1365 14.7872 35.784 15.5928 35.163 16.1299C34.4916 16.7006 33.6356 17.0027 32.746 16.9692C31.5039 16.9692 30.564 16.5831 29.8926 15.8278C29.2044 14.9886 28.8352 13.9312 28.8855 12.857V12.6891C28.8855 11.4806 29.2212 10.4903 29.8926 9.71824C30.5472 8.94615 31.5039 8.57689 32.7292 8.57689C33.7531 8.57689 34.5755 8.86223 35.1965 9.4329C35.8343 10.0371 36.1532 10.9099 36.1029 11.7827L36.0861 11.8331H33.7698C33.7866 11.4974 33.6859 11.1617 33.5181 10.8932C33.3502 10.6582 33.0985 10.5407 32.746 10.5407C32.2592 10.5407 31.9235 10.7421 31.7389 11.1281C31.5207 11.6317 31.42 12.1688 31.4536 12.7059V12.8737C31.4536 13.5451 31.5543 14.0822 31.7389 14.4683C31.9068 14.8207 32.2592 15.0222 32.746 15.0222ZM41.7257 10.9435H40.8026C40.5172 10.9435 40.2822 10.9939 40.0976 11.0778C39.913 11.1785 39.7787 11.3128 39.6948 11.4974V16.8181H37.1603V8.71117H39.5437L39.6276 9.90287C39.7619 9.51683 39.9969 9.18114 40.3158 8.91258C40.5844 8.6776 40.9368 8.56011 41.2893 8.56011C41.5243 8.56011 41.7593 8.59368 41.9943 8.64403L41.7257 10.9435ZM46.5429 13.243V13.3101H46.5932L47.936 8.71117H50.6383L47.3989 18.0098C47.1471 18.614 46.8282 19.1008 46.4254 19.4868C46.0226 19.8729 45.4015 20.0743 44.5287 20.0743C44.3105 20.0743 44.1259 20.0575 43.9916 20.024C43.8573 20.0072 43.6391 19.9568 43.337 19.8729L43.6391 18.0769L43.7902 18.1105L43.9245 18.1273C44.3273 18.1273 44.6126 18.0602 44.7973 17.9427C44.9819 17.8252 45.1162 17.6405 45.2169 17.4056L45.4183 16.8852L42.5985 8.69439H45.3008L46.5429 13.243ZM56.2947 12.773C56.2947 12.1016 56.194 11.531 55.9926 11.1281C55.7912 10.7085 55.4722 10.5071 55.0358 10.5071C54.7505 10.5071 54.4987 10.5575 54.3141 10.6582C54.1127 10.7589 53.9616 10.9099 53.8441 11.1114V14.5018C53.9616 14.6697 54.1295 14.804 54.3141 14.8879C54.5491 14.9718 54.8009 15.0222 55.0526 15.0054C55.5058 15.0054 55.8079 14.8207 56.0094 14.4515C56.2276 13.9647 56.3283 13.4444 56.2947 12.9073V12.773ZM58.8292 12.9241C58.8292 14.1494 58.5438 15.1229 58.0067 15.8614C57.4696 16.5999 56.5968 17.0027 55.6904 16.9692C54.9687 16.9859 54.2973 16.667 53.8609 16.0964V19.9232H51.3265V8.71117H53.6931L53.7938 9.60075C54.1966 8.94615 54.9184 8.54332 55.6904 8.56011C56.6975 8.56011 57.4696 8.94615 58.0235 9.71824C58.611 10.6246 58.8963 11.6988 58.8459 12.773V12.9241H58.8292ZM62.9414 6.69702V8.71117H64.3177V10.4568H62.9414V14.1829C62.9414 14.4683 63.0085 14.6697 63.1092 14.804C63.2267 14.9382 63.4113 15.0054 63.5792 15.0054C63.8309 15.0054 64.0827 14.9886 64.3177 14.9382L64.4855 16.8181C63.982 16.9356 63.4617 17.0027 62.9246 17.0027C62.0854 17.0027 61.4643 16.7678 61.0279 16.3314C60.5915 15.895 60.3733 15.19 60.3733 14.2333V10.4903H59.232V8.74474H60.3733V6.73059H62.9414V6.69702ZM67.49 12.8402C67.49 13.5115 67.5907 14.0487 67.8089 14.4347C68.0271 14.8207 68.3796 15.0054 68.8999 15.0054C69.4034 15.0054 69.7559 14.8207 69.9573 14.4179C70.1755 14.0319 70.2762 13.4948 70.2762 12.8234V12.6555C70.293 12.1016 70.1923 11.5645 69.9573 11.0778C69.7391 10.675 69.3866 10.4903 68.8663 10.4903C68.3628 10.4903 68.0103 10.6917 67.8089 11.0946C67.5907 11.4974 67.49 12.0177 67.49 12.6723V12.8402ZM64.9555 12.6891C64.9052 11.5981 65.2744 10.5407 65.9962 9.71824C66.6843 8.94615 67.6578 8.56011 68.8831 8.56011C70.1251 8.56011 71.0819 8.94615 71.77 9.71824C72.475 10.5407 72.861 11.5981 72.8107 12.6891V12.857C72.8107 14.0822 72.4582 15.0725 71.77 15.8278C71.0819 16.5999 70.1251 16.9692 68.8831 16.9692C67.641 16.9692 66.6675 16.5831 65.9794 15.8278C65.2744 15.0054 64.9052 13.9312 64.9555 12.857V12.6891ZM76.2683 8.71117L76.369 9.85252C76.6376 9.44969 76.9565 9.13078 77.3593 8.91258C77.7621 8.6776 78.1985 8.56011 78.6517 8.57689C79.4574 8.57689 80.0784 8.82866 80.5148 9.34898C80.968 9.8693 81.1862 10.6917 81.1862 11.8163V16.8349H78.6517V11.7995C78.6517 11.3296 78.551 11.0106 78.3664 10.8092C78.1817 10.6246 77.8964 10.5239 77.5103 10.5239C77.0907 10.5071 76.6879 10.6917 76.4194 11.0107V16.8349H73.9017V8.72795H76.2683V8.71117ZM86.104 10.5071C85.7348 10.5071 85.4662 10.6246 85.2816 10.8932C85.097 11.1449 84.9963 11.4974 84.9459 11.9338L84.9627 11.9674H87.1447V11.7827C87.1447 11.3631 87.0607 11.061 86.8929 10.8428C86.7251 10.6078 86.4733 10.5071 86.104 10.5071ZM86.2887 16.9692C85.0802 16.9692 84.1402 16.5999 83.4185 15.8446C82.6968 15.0893 82.3107 14.0654 82.3443 13.0248V12.7395C82.3443 11.4974 82.6632 10.4903 83.3178 9.71824C83.9724 8.94615 84.8955 8.54332 86.104 8.56011C87.2118 8.56011 88.0678 8.8958 88.6888 9.55039C89.3434 10.2889 89.6791 11.2456 89.6288 12.2191V13.5451H84.9795L84.9627 13.5955C85.0298 14.0151 85.1809 14.3508 85.483 14.6193C85.7683 14.8879 86.1376 15.0222 86.6244 15.0222C87.3964 15.0389 88.1685 14.8711 88.8735 14.5186L89.4777 16.0628C89.0581 16.3481 88.5881 16.5663 88.1014 16.7174C87.5307 16.8852 86.9265 16.9692 86.2887 16.9692ZM97.6854 13.4108H97.7357L98.6085 8.71117H100.942L99.0281 16.8181H96.8797L95.5537 12.5213H95.5034L94.1774 16.8181H92.029L90.1155 8.71117H92.4486L93.3382 13.4444H93.3885L94.7145 8.71117H96.309L97.6854 13.4108ZM106.078 14.5354C106.078 14.334 105.96 14.1661 105.742 13.9983C105.356 13.7801 104.936 13.6458 104.5 13.5787C103.728 13.4612 102.989 13.1759 102.351 12.7059C101.865 12.3198 101.613 11.7324 101.63 11.1114C101.63 10.4064 101.965 9.73502 102.536 9.29863C103.14 8.81187 103.963 8.56011 104.97 8.56011C106.061 8.56011 106.917 8.79509 107.555 9.28184C108.159 9.70146 108.511 10.4064 108.478 11.1449L108.461 11.1953H106.01C106.01 10.8764 105.927 10.6414 105.759 10.4735C105.591 10.3057 105.339 10.2218 104.987 10.2218C104.718 10.2218 104.5 10.2889 104.315 10.44C104.147 10.5743 104.047 10.7757 104.047 10.9939C104.063 11.2121 104.164 11.4135 104.349 11.531C104.735 11.7492 105.171 11.8834 105.608 11.9338C106.397 12.0513 107.152 12.3534 107.806 12.8066C108.293 13.2094 108.562 13.8137 108.511 14.4515C108.511 15.1732 108.192 15.7775 107.538 16.2474C106.783 16.751 105.876 17.0027 104.97 16.9524C103.862 16.9524 102.989 16.667 102.351 16.1132C101.714 15.5593 101.395 14.9215 101.428 14.2333L101.445 14.1829H103.745C103.761 14.569 103.862 14.8375 104.097 15.0054C104.315 15.1732 104.634 15.2571 105.037 15.2571C105.373 15.2571 105.641 15.19 105.809 15.0557C105.994 14.9718 106.078 14.7704 106.078 14.5354Z" fill="white"/>
</svg>
