<svg width="125" height="23" viewBox="0 0 125 23" fill="none" xmlns="http://www.w3.org/2000/svg">
<g clip-path="url(#clip0_887_3328)">
<path fill-rule="evenodd" clip-rule="evenodd" d="M14.6331 0.694636C14.5347 0.669944 14.4161 0.669944 14.3178 0.694636L7.87466 2.66386L7.87131 2.66498C7.56952 2.76597 7.42175 3.07047 7.49518 3.3653L7.49686 3.37206L7.49923 3.37862C7.59775 3.65059 7.89736 3.83285 8.20473 3.7311L14.4848 1.81478L20.8996 3.78892C21.2099 3.89171 21.5097 3.70535 21.6065 3.41376C21.7097 3.10297 21.525 2.80115 21.2332 2.70351L14.6396 0.696258L14.6331 0.694636ZM4.87076 4.07505C4.84102 3.84593 4.96427 3.62141 5.15467 3.50673L5.16125 3.50276L5.16825 3.49957C5.23182 3.47056 5.29821 3.45368 5.36456 3.44829C5.41935 3.44055 5.47649 3.44098 5.53457 3.4507C5.76878 3.48989 5.94397 3.66655 5.988 3.88589L9.6739 11.1065H19.4421C19.462 11.1065 19.4816 11.1076 19.501 11.1097L22.9802 3.8975C23.0073 3.74925 23.0955 3.61995 23.2263 3.54264C23.3852 3.43267 23.5986 3.41563 23.7826 3.49957C23.9666 3.58354 24.0713 3.75117 24.0908 3.93197L24.2046 4.59856C24.2306 4.71521 24.3416 5.49239 24.3416 6.66969C24.3416 7.83582 24.2255 9.37064 23.7998 11.0996C23.3933 12.732 22.6573 14.6965 21.3203 16.6222C19.9833 18.548 18.0466 20.4529 15.2605 21.9487L15.2596 21.9491L14.7441 22.2366L14.7434 22.2371C14.5679 22.3374 14.3829 22.3374 14.2074 22.2371L14.2067 22.2366L13.6912 21.9491L13.6903 21.9487C10.9042 20.4529 8.96745 18.548 7.63049 16.6222C6.29393 14.6971 5.55754 12.7328 5.1891 11.079C4.76365 9.35042 4.64758 7.79681 4.64758 6.6504C4.64758 5.47311 4.75862 4.69594 4.78466 4.57927L4.87076 4.07505ZM10.2446 12.2245H18.9086L14.4875 20.5362L10.2446 12.2245ZM5.77842 5.92134C5.76867 6.13934 5.76229 6.38362 5.76229 6.6504C5.76229 7.72297 5.85772 9.19674 6.25785 10.8035C6.639 12.3532 7.32492 14.1702 8.56273 15.9673C9.61847 17.4836 11.0764 19.0009 13.1155 20.2934L5.77842 5.92134ZM15.8836 20.272C17.8972 18.9878 19.3581 17.4905 20.4071 15.9675C21.6449 14.1706 22.3309 12.3346 22.7121 10.8035C23.1123 9.19674 23.2077 7.72297 23.2077 6.6504C23.2077 6.41232 23.2026 6.19216 23.1946 5.99261L20.499 11.5804V11.6026L15.8836 20.272Z" fill="white"/>
<path fill-rule="evenodd" clip-rule="evenodd" d="M14.3738 1.08546L8.05714 3.01603L8.05633 3.0163C7.86692 3.07968 7.76942 3.26847 7.81631 3.46342C7.88219 3.64026 8.07242 3.74636 8.25786 3.68496L8.26008 3.68423L14.4853 1.78469L20.8423 3.74106L20.8444 3.74174C21.0293 3.80303 21.221 3.69756 21.2866 3.49975C21.3484 3.31361 21.2437 3.12153 21.0483 3.05491L14.5836 1.08691L14.582 1.08652C14.5187 1.07063 14.4379 1.07028 14.3738 1.08546ZM14.679 0.700285L14.6901 0.703084L21.1698 2.67563L21.1723 2.67649C21.5483 2.80229 21.8051 3.20198 21.6645 3.62523C21.5404 3.99923 21.1446 4.25937 20.7213 4.12046L14.4847 2.20118L8.38062 4.06379C7.96463 4.20004 7.56911 3.95029 7.44071 3.5958L7.43487 3.57967L7.43073 3.56303C7.33544 3.18038 7.528 2.77318 7.92996 2.63867L7.93574 2.63674L14.2676 0.701509L14.2725 0.700285C14.4009 0.668061 14.5506 0.668061 14.679 0.700285ZM5.51055 3.39843C5.58263 3.38883 5.65718 3.38981 5.73227 3.40237C6.03428 3.4529 6.26484 3.67596 6.33331 3.95789L9.88448 10.9146H19.2853L22.6339 3.97306C22.6759 3.78617 22.7907 3.62245 22.9581 3.52125C23.1737 3.37519 23.455 3.35643 23.6943 3.46558C23.9426 3.5789 24.0836 3.80517 24.1114 4.04331L24.2214 4.68761C24.2529 4.83636 24.3595 5.61004 24.3595 6.75849C24.3595 7.91617 24.2442 9.4391 23.8218 11.1546C23.4183 12.7749 22.6872 14.7271 21.3582 16.6415C20.0291 18.5559 18.1049 20.4475 15.341 21.9315L15.3396 21.9323L14.8385 22.2117L14.8378 22.2121C14.6043 22.3457 14.3473 22.3458 14.1139 22.2123L14.113 22.2118L13.6117 21.9322L13.6109 21.9317C10.847 20.4478 8.92233 18.5559 7.5932 16.6415C6.26522 14.7286 5.5331 12.7768 5.16644 11.1321C4.74472 9.41786 4.62964 7.87736 4.62964 6.73956C4.62964 5.59116 4.73623 4.8175 4.76777 4.6687L4.84693 4.20517C4.82155 3.90626 4.9845 3.62731 5.22376 3.48319L5.23996 3.47343L5.25717 3.46558C5.3389 3.42829 5.42455 3.40607 5.51055 3.39843ZM5.66656 3.79513C5.62966 3.78895 5.59406 3.78877 5.56041 3.79353L5.55454 3.79436L5.54864 3.79484C5.50754 3.79818 5.46612 3.80844 5.42597 3.82628C5.30194 3.90273 5.22739 4.04828 5.24526 4.18599L5.24912 4.21565L5.15872 4.74502L5.15762 4.74993C5.13643 4.84486 5.02785 5.59178 5.02785 6.73956C5.02785 7.85201 5.14052 9.36066 5.55363 11.039L5.55416 11.0411L5.55464 11.0433C5.91146 12.645 6.62495 14.5485 7.92031 16.4143C9.21585 18.2804 11.0938 20.1283 13.7993 21.5809L13.8029 21.5828L14.3108 21.8662L14.3115 21.8665C14.4225 21.9301 14.5289 21.9301 14.6399 21.8665L14.6425 21.8651L15.1513 21.5813L15.1522 21.5809C17.8576 20.1283 19.7356 18.2804 21.0311 16.4143C22.3268 14.548 23.0407 12.6432 23.4353 11.0588C23.8486 9.38014 23.9613 7.89001 23.9613 6.75849C23.9613 5.6107 23.8527 4.86377 23.8315 4.76886L23.8304 4.76395L23.7168 4.09858L23.7162 4.09243C23.7039 3.97802 23.6396 3.87834 23.5289 3.82786C23.4092 3.77321 23.2745 3.78655 23.1789 3.85271L23.173 3.85678L23.1669 3.86042C23.0893 3.90627 23.0363 3.98307 23.0198 4.07315L23.0149 4.09961L19.5271 11.3298L19.3874 11.3147C19.3755 11.3134 19.3634 11.3127 19.351 11.3127H9.64066L5.95468 4.09202L5.94928 4.06512C5.92215 3.92998 5.81412 3.81982 5.66656 3.79513ZM5.77353 5.26233L13.6492 20.6895L13.0342 20.2997C11.0087 19.0157 9.55869 17.5072 8.50844 15.9988L8.50787 15.998C7.27669 14.2104 6.5948 12.4037 6.21608 10.864C5.81843 9.26695 5.72383 7.80353 5.72383 6.73956C5.72383 6.47452 5.73017 6.23176 5.73987 6.01503L5.77353 5.26233ZM23.2014 5.2896L23.2334 6.08588C23.2414 6.28425 23.2465 6.50304 23.2465 6.73956C23.2465 7.8036 23.1518 9.26722 22.7541 10.8643C22.3754 12.385 21.6936 14.2104 20.4622 15.9982C19.4178 17.5146 17.9646 19.0032 15.9651 20.2784L15.3262 20.6859L20.1893 11.5509V11.5334L23.2014 5.2896ZM6.12224 6.82118C6.12704 7.85519 6.22482 9.25113 6.60258 10.7681C6.97211 12.2706 7.63689 14.0313 8.83555 15.7717C9.74578 17.0789 10.965 18.3876 12.617 19.5435L6.12224 6.82118ZM20.5876 11.6244V11.6503L16.4073 19.5024C18.0264 18.3609 19.2367 17.0754 20.1343 15.7723C21.3329 14.0322 21.9978 12.2533 22.3677 10.7681C22.7311 9.30874 22.8354 7.96141 22.8471 6.94058L20.5876 11.6244ZM9.9976 12.012H19.1588L14.4839 20.8006L9.9976 12.012ZM10.6479 12.4102L14.4912 19.939L18.4959 12.4102H10.6479Z" fill="white"/>
<path d="M14.6305 0.893402L14.679 0.700285M14.679 0.700285C14.5506 0.668061 14.4009 0.668061 14.2725 0.700285L14.2676 0.701509L7.93574 2.63674L7.92996 2.63867C7.528 2.77318 7.33544 3.18038 7.43073 3.56303L7.43487 3.57967L7.44071 3.5958C7.56911 3.95029 7.96463 4.20004 8.38062 4.06379L14.4847 2.20118L20.7213 4.12046C21.1446 4.25937 21.5404 3.99923 21.6645 3.62523C21.8051 3.20198 21.5483 2.80229 21.1724 2.67649L21.1698 2.67563L14.6901 0.703084L14.679 0.700285ZM5.25717 3.46558L5.33983 3.64672M5.25717 3.46558C5.33889 3.42829 5.42455 3.40607 5.51055 3.39843C5.58263 3.38883 5.65718 3.38981 5.73227 3.40237C6.03428 3.4529 6.26484 3.67596 6.33331 3.95789L9.88448 10.9146H19.2853L22.6339 3.97306C22.6759 3.78617 22.7907 3.62245 22.9581 3.52125C23.1737 3.37519 23.455 3.35643 23.6943 3.46558C23.9426 3.5789 24.0836 3.80517 24.1114 4.04331L24.2214 4.68761C24.2529 4.83636 24.3595 5.61004 24.3595 6.75849C24.3595 7.91617 24.2442 9.4391 23.8218 11.1546C23.4183 12.7749 22.6872 14.7271 21.3582 16.6415C20.0291 18.5559 18.1049 20.4475 15.341 21.9315L15.3396 21.9323L14.8385 22.2117L14.8378 22.2121C14.6043 22.3457 14.3473 22.3458 14.1139 22.2123L14.113 22.2118L13.6117 21.9322L13.6109 21.9317C10.847 20.4478 8.92233 18.5559 7.5932 16.6415C6.26522 14.7286 5.5331 12.7768 5.16644 11.1321C4.74472 9.41787 4.62964 7.87736 4.62964 6.73956C4.62964 5.59116 4.73623 4.8175 4.76777 4.6687L4.84693 4.20517C4.82155 3.90626 4.9845 3.62731 5.22376 3.48319L5.23996 3.47343L5.25717 3.46558ZM5.3406 3.64841L5.36717 3.70664M8.05714 3.01603L14.3738 1.08546C14.4379 1.07028 14.5187 1.07063 14.582 1.08652L14.5836 1.08691L21.0483 3.05491C21.2437 3.12153 21.3484 3.31361 21.2866 3.49975C21.221 3.69756 21.0293 3.80303 20.8444 3.74174L20.8423 3.74106L14.4853 1.78469L8.26008 3.68423L8.25786 3.68496C8.07242 3.74636 7.88219 3.64026 7.81631 3.46342C7.76942 3.26847 7.86692 3.07968 8.05633 3.0163L8.05714 3.01603ZM5.56041 3.79353C5.59406 3.78877 5.62966 3.78895 5.66656 3.79513C5.81412 3.81982 5.92215 3.92998 5.94928 4.06512L5.95468 4.09202L9.64066 11.3127H19.351C19.3634 11.3127 19.3755 11.3134 19.3874 11.3147L19.527 11.3298L23.0149 4.09961L23.0198 4.07315C23.0363 3.98307 23.0893 3.90627 23.1669 3.86042L23.173 3.85678L23.1789 3.85271C23.2745 3.78655 23.4092 3.77321 23.5289 3.82786C23.6396 3.87834 23.7039 3.97802 23.7162 4.09243L23.7168 4.09858L23.8304 4.76395L23.8315 4.76886C23.8527 4.86377 23.9613 5.6107 23.9613 6.75849C23.9613 7.89001 23.8486 9.38014 23.4353 11.0588C23.0407 12.6432 22.3268 14.548 21.0311 16.4143C19.7356 18.2804 17.8576 20.1283 15.1522 21.5809L15.1513 21.5813L14.6425 21.8651L14.6405 21.8663C14.5295 21.9298 14.4225 21.9301 14.3115 21.8665L14.3108 21.8662L13.8029 21.5828L13.7993 21.5809C11.0938 20.1283 9.21585 18.2804 7.92031 16.4143C6.62495 14.5485 5.91146 12.645 5.55464 11.0433L5.55416 11.0411L5.55363 11.039C5.14052 9.36066 5.02785 7.85201 5.02785 6.73956C5.02785 5.59178 5.13643 4.84486 5.15762 4.74993L5.15872 4.74502L5.24912 4.21565L5.24526 4.18599C5.22739 4.04828 5.30194 3.90273 5.42597 3.82628C5.46612 3.80844 5.50754 3.79818 5.54864 3.79484L5.55454 3.79436L5.56041 3.79353ZM5.77353 5.26233L5.73987 6.01503C5.73017 6.23176 5.72383 6.47452 5.72383 6.73956C5.72383 7.80353 5.81843 9.26695 6.21608 10.864C6.5948 12.4037 7.27669 14.2104 8.50787 15.998L8.50844 15.9988C9.55869 17.5073 11.0087 19.0157 13.0342 20.2997L13.6492 20.6895L5.77353 5.26233ZM23.2334 6.08588L23.2014 5.2896L20.1893 11.5334V11.5509L15.3262 20.6859L15.9651 20.2784C17.9646 19.0032 19.4178 17.5146 20.4622 15.9982C21.6936 14.2104 22.3754 12.385 22.7541 10.8643C23.1518 9.26722 23.2465 7.8036 23.2465 6.73956C23.2465 6.50304 23.2414 6.28425 23.2334 6.08588ZM6.60258 10.7681C6.22482 9.25113 6.12704 7.85519 6.12224 6.82118L12.617 19.5435C10.965 18.3876 9.74578 17.0789 8.83555 15.7717C7.63689 14.0313 6.97211 12.2706 6.60258 10.7681ZM20.5876 11.6503V11.6244L22.8471 6.94058C22.8354 7.96141 22.7311 9.30874 22.3677 10.7681C21.9978 12.2533 21.3329 14.0322 20.1343 15.7723C19.2367 17.0754 18.0264 18.3609 16.4073 19.5024L20.5876 11.6503ZM9.9976 12.012H19.1588L14.4839 20.8006L9.9976 12.012ZM14.4912 19.939L10.6479 12.4102H18.4959L14.4912 19.939Z" stroke="white" stroke-width="0.265476" stroke-miterlimit="10"/>
<path d="M43.5852 7.31467H34.6843C34.5276 7.31467 34.3971 7.36713 34.2666 7.4981C34.1622 7.60297 34.0839 7.76017 34.0839 7.91737V15.0712C34.0839 15.2285 34.1361 15.3595 34.2666 15.4905C34.371 15.5953 34.5276 15.6739 34.6843 15.6739H43.5852V16.8793H34.6843C34.1883 16.8793 33.7707 16.6959 33.4313 16.3552C33.092 16.0146 32.9093 15.5953 32.9093 15.0974V7.8912C32.9093 7.3933 33.092 6.97403 33.4313 6.63337C33.7707 6.29272 34.1883 6.10928 34.6843 6.10928H43.5852V7.31467Z" fill="white"/>
<path d="M43.2006 16.6068H43.3128V16.4947V16.0585V15.9463H43.2006H34.6844C34.4424 15.9463 34.2194 15.829 34.0737 15.6827C33.8956 15.5039 33.8115 15.305 33.8115 15.0711V7.91733C33.8115 7.67554 33.928 7.45208 34.0737 7.30583C34.2518 7.12699 34.4504 7.04221 34.6844 7.04221H43.2006H43.3128V6.93004V6.49389V6.3817H43.2006H34.6844C34.2636 6.3817 33.9146 6.53432 33.6245 6.82564C33.3343 7.11692 33.1819 7.46777 33.1819 7.89116V15.0974C33.1819 15.5208 33.3343 15.8716 33.6245 16.1629C33.9146 16.4542 34.2636 16.6068 34.6844 16.6068H43.2006ZM33.2384 6.44106C33.6269 6.05102 34.1132 5.83679 34.6844 5.83679H43.8577V7.5871H34.6844C34.6549 7.5871 34.6167 7.589 34.5736 7.60745C34.5326 7.62497 34.4964 7.65357 34.4597 7.69035C34.4259 7.72436 34.4009 7.76364 34.3842 7.80076C34.3682 7.83646 34.3564 7.87784 34.3564 7.91733V15.0711C34.3564 15.1016 34.3585 15.1402 34.3769 15.1835C34.3945 15.2248 34.423 15.2613 34.4597 15.2982C34.4937 15.3322 34.5326 15.3572 34.5694 15.3738C34.6046 15.3897 34.6454 15.4014 34.6844 15.4014H43.8577V17.1517H34.6844C34.1132 17.1517 33.6269 16.9375 33.2384 16.5475C32.8499 16.1575 32.637 15.6697 32.637 15.0974V7.89116C32.637 7.31881 32.8499 6.83105 33.2384 6.44106Z" fill="white" stroke="white" stroke-width="0.224376" stroke-miterlimit="10"/>
<path d="M60.2907 6.10928V7.31467H51.7292V10.8785H58.6202V12.1101H51.7292V15.6739H60.2907V16.8793H50.5284V6.13549H60.2907V6.10928Z" fill="white"/>
<path d="M52.1138 7.58702H52.0016V7.69919V10.4937V10.606H52.1138H58.8926V12.3824H52.1138H52.0016V12.4947V15.2892V15.4014H52.1138H60.5632V17.1517H50.256V5.86292H60.5632V6.10917V7.58702H52.1138ZM60.0183 6.52001V6.40783H59.9061H50.9131H50.8009V6.52001V16.4946V16.6068H50.9131H59.9061H60.0183V16.4946V16.0584V15.9462H59.9061H51.4567V11.8375H58.2356H58.3477V11.7254V11.263V11.1508H58.2356H51.4567V7.04212H59.9061H60.0183V6.92995V6.52001Z" fill="white" stroke="white" stroke-width="0.224376" stroke-miterlimit="10"/>
<path d="M77.9361 7.8912V11.0358C77.9361 11.5336 77.7535 11.9529 77.4141 12.2936C77.0747 12.6342 76.6569 12.8176 76.1613 12.8176H74.5169L77.884 16.8269H76.2918L72.9246 12.8438H69.009C68.9307 12.8438 68.7218 12.8176 68.4347 12.7914V16.8531H67.234V6.10928H76.1613C76.6569 6.10928 77.0747 6.29272 77.4141 6.63337C77.7535 6.97403 77.9361 7.3933 77.9361 7.8912ZM69.009 11.6122H76.1349C76.2917 11.6122 76.4222 11.5598 76.5264 11.455C76.6312 11.3502 76.6832 11.2191 76.6832 11.0619V7.91737C76.6832 7.76017 76.6312 7.62913 76.5264 7.4981C76.4222 7.3933 76.2917 7.31467 76.1349 7.31467H69.009C68.8524 7.31467 68.7218 7.36713 68.5913 7.4981C68.4869 7.60297 68.4087 7.76017 68.4087 7.91737V11.0619C68.4087 11.2191 68.4609 11.3502 68.5913 11.455C68.6957 11.5598 68.8524 11.6122 69.009 11.6122Z" fill="white"/>
<path d="M75.2559 13.2744L78.4682 17.0993H76.1653L72.8313 13.156L72.7982 13.1162H72.7461H69.0089C68.9655 13.1162 68.9016 13.111 68.8301 13.1041L68.7072 13.0923V13.2158V17.1255H66.9615V5.83679H76.1613C76.7319 5.83679 77.2187 6.05101 77.6068 6.44106C77.9956 6.83105 78.2086 7.31881 78.2086 7.89116V11.0357C78.2086 11.608 77.9956 12.0958 77.6068 12.4858C77.2187 12.8758 76.7319 13.0901 76.1613 13.0901H75.3418H75.1011L75.2559 13.2744ZM67.5064 16.4684V16.5806H67.6187H68.0501H68.1622V16.4684V12.4929L68.4595 12.52C68.5707 12.5302 68.6712 12.5404 68.7554 12.549L68.8273 12.5563C68.8762 12.5612 68.9164 12.5651 68.9488 12.5678C68.9649 12.569 68.978 12.57 68.9887 12.5706L69.0019 12.5712L69.0059 12.5713L69.0073 12.5713H69.0081H69.009H73.0511L76.3844 16.5147L76.4182 16.5544H76.4703H77.0585H77.2992L77.1444 16.3701L73.9321 12.5451H76.1613C76.5818 12.5451 76.9307 12.3925 77.2208 12.1012C77.5108 11.8099 77.6636 11.4591 77.6636 11.0357V7.89116C77.6636 7.46777 77.5108 7.11692 77.2208 6.82564C76.9307 6.53432 76.5818 6.3817 76.1613 6.3817H67.6187H67.5064V6.49389V16.4684ZM68.4118 11.6605L68.4066 11.6557C68.2145 11.4947 68.1361 11.2861 68.1361 11.0619V7.91733C68.1361 7.67554 68.2526 7.45208 68.3983 7.30583C68.5764 7.12699 68.7751 7.04221 69.0089 7.04221H76.1349C76.3898 7.04221 76.5852 7.17115 76.7198 7.30583L76.7299 7.31651L76.7394 7.32828C76.8759 7.49941 76.9557 7.68879 76.9557 7.91733V11.0619C76.9557 11.2862 76.878 11.4879 76.7198 11.6472C76.5609 11.8066 76.3594 11.8847 76.1349 11.8847H69.0089C68.8035 11.8847 68.5776 11.8185 68.4118 11.6605ZM68.762 11.2425L68.7737 11.252L68.7843 11.2627C68.8257 11.3041 68.9059 11.3397 69.0089 11.3397H76.1349C76.1755 11.3397 76.2133 11.3344 76.2492 11.32C76.2857 11.3052 76.3121 11.2839 76.3337 11.2627C76.3546 11.2413 76.3763 11.2143 76.3905 11.1774C76.4054 11.1415 76.4108 11.103 76.4108 11.0619V7.91733C76.4108 7.83984 76.3905 7.77135 76.329 7.68832L76.3229 7.6798L76.3148 7.67257C76.2465 7.60975 76.187 7.5871 76.1349 7.5871H69.0089C68.9795 7.5871 68.9413 7.589 68.8982 7.60745C68.8572 7.62497 68.821 7.65357 68.7843 7.69035C68.7505 7.72436 68.7255 7.76364 68.7089 7.80076C68.6929 7.83646 68.6811 7.87784 68.6811 7.91733V11.0619C68.6811 11.1102 68.689 11.1429 68.6997 11.1666C68.7098 11.1893 68.7273 11.2147 68.762 11.2425Z" fill="white"/>
<path d="M68.9887 12.5706C68.978 12.57 68.9649 12.569 68.9488 12.5678C68.9164 12.5651 68.8762 12.5612 68.8273 12.5563L68.7554 12.549C68.6712 12.5404 68.5707 12.5302 68.4595 12.52L68.1622 12.4929V16.4684V16.5806H68.0501H67.6187H67.5064V16.4684V6.49389V6.3817H67.6187H76.1613C76.5818 6.3817 76.9307 6.53432 77.2208 6.82564C77.5108 7.11692 77.6636 7.46777 77.6636 7.89116V11.0357C77.6636 11.4591 77.5108 11.8099 77.2208 12.1012C76.9307 12.3925 76.5818 12.5451 76.1613 12.5451H73.9321L77.1444 16.3701L77.2992 16.5544H77.0585H76.4703H76.4182L76.3844 16.5147L73.0511 12.5713H69.009H69.0081M68.9887 12.5706L68.9949 12.4606M68.9887 12.5706L69.0019 12.5712L69.0059 12.5713L69.0073 12.5713H69.0081M69.0081 12.5713L69.009 12.4592M76.7198 7.30583C76.5852 7.17115 76.3898 7.04221 76.1349 7.04221H69.0089C68.7751 7.04221 68.5764 7.12699 68.3983 7.30583C68.2526 7.45208 68.1361 7.67554 68.1361 7.91733V11.0619C68.1361 11.2861 68.2145 11.4947 68.4066 11.6557L68.4118 11.6605C68.5776 11.8185 68.8035 11.8847 69.0089 11.8847H76.1349C76.3594 11.8847 76.5609 11.8066 76.7198 11.6472C76.878 11.4879 76.9557 11.2862 76.9557 11.0619V7.91733C76.9557 7.68879 76.8759 7.49941 76.7394 7.32828M76.7198 7.30583L76.7962 7.22936M76.7198 7.30583L76.7299 7.31651L76.7394 7.32828M76.7394 7.32828L76.8273 7.25837M68.762 11.2425L68.8313 11.1562M68.762 11.2425L68.7737 11.252L68.7843 11.2627C68.8257 11.3041 68.9059 11.3397 69.0089 11.3397H76.1349C76.1755 11.3397 76.2133 11.3344 76.2492 11.32C76.2857 11.3052 76.3121 11.2839 76.3337 11.2627C76.3546 11.2413 76.3763 11.2143 76.3905 11.1774C76.4054 11.1415 76.4108 11.103 76.4108 11.0619V7.91733C76.4108 7.83984 76.3905 7.77135 76.329 7.68832L76.3229 7.6798L76.3148 7.67257C76.2465 7.60975 76.187 7.5871 76.1349 7.5871H69.0089C68.9795 7.5871 68.9413 7.589 68.8982 7.60745C68.8572 7.62497 68.821 7.65357 68.7843 7.69035C68.7505 7.72436 68.7255 7.76364 68.7089 7.80076C68.6929 7.83646 68.6811 7.87784 68.6811 7.91733V11.0619C68.6811 11.1102 68.689 11.1429 68.6997 11.1666M68.762 11.2425C68.7273 11.2147 68.7098 11.1893 68.6997 11.1666M68.6997 11.1666L68.7945 11.1241M75.2559 13.2744L78.4682 17.0993H76.1653L72.8313 13.156L72.7982 13.1162H72.7461H69.0089C68.9655 13.1162 68.9016 13.111 68.8301 13.1041L68.7072 13.0923V13.2158V17.1255H66.9615V5.83679H76.1613C76.7319 5.83679 77.2187 6.05101 77.6068 6.44106C77.9956 6.83105 78.2086 7.31881 78.2086 7.89116V11.0357C78.2086 11.608 77.9956 12.0958 77.6068 12.4858C77.2187 12.8758 76.7319 13.0901 76.1613 13.0901H75.3418H75.1011L75.2559 13.2744Z" stroke="white" stroke-width="0.224376" stroke-miterlimit="10"/>
<path d="M84.3309 6.10928H95.0328V7.31467H90.2822V16.8531H89.0814V7.31467H84.3309V6.10928Z" fill="white"/>
<path d="M90.667 7.5871H90.5547V7.69927V17.1255H88.809V7.69927V7.5871H88.6967H84.0585V5.83679H95.3053V7.5871H90.667ZM84.6034 6.93004V7.04221H84.7157H89.3539V16.4684V16.5806H89.4662H89.8976H90.0098V16.4684V7.04221H94.6481H94.7603V6.93004V6.49389V6.3817H94.6481H84.7157H84.6034V6.49389V6.93004Z" fill="white" stroke="white" stroke-width="0.224376" stroke-miterlimit="10"/>
<path d="M101.506 16.8531V6.10928H102.707V16.8531H101.506Z" fill="white"/>
<path d="M101.779 16.4684V16.5806H101.891H102.322H102.434V16.4684V6.49389V6.3817H102.322H101.891H101.779V6.49389V16.4684ZM101.234 17.1255V5.83679H102.979V17.1255H101.234Z" fill="white" stroke="white" stroke-width="0.224376" stroke-miterlimit="10"/>
<path d="M118.786 6.10928H120.326L115.862 11.4812L120.353 16.8531H118.786L114.793 12.0839H111.347V16.8531H110.12V6.10928H111.347V10.8785H114.793L118.786 6.10928Z" fill="white"/>
<path d="M118.659 5.83679H120.907L116.277 11.4087L116.217 11.4807L116.278 11.5524L120.935 17.1255H118.659L114.699 12.3965L114.665 12.3563H114.613H111.732H111.62V12.4685V17.1255H109.848V5.83679H111.62V10.4938V10.606H111.732H114.613H114.665L114.699 10.5659L118.659 5.83679ZM110.392 16.4684V16.5806H110.505H110.962H111.075V16.4684V11.8114H114.92L118.88 16.5405L118.913 16.5806H118.966H119.53H119.77L119.616 16.3965L115.508 11.4817L119.593 6.56559L119.745 6.3817H119.507H118.966H118.913L118.88 6.42186L114.92 11.1509H111.075V6.49389V6.3817H110.962H110.505H110.392V6.49389V16.4684Z" fill="white" stroke="white" stroke-width="0.224376" stroke-miterlimit="10"/>
</g>
<defs>
<clipPath id="clip0_887_3328">
<rect width="125" height="22.9885" fill="white"/>
</clipPath>
</defs>
</svg>
