<svg width="99" height="25" viewBox="0 0 99 25" fill="none" xmlns="http://www.w3.org/2000/svg">
<path fill-rule="evenodd" clip-rule="evenodd" d="M17.1199 11.869C16.5691 12.2619 14.1131 14.3386 13.8671 14.6194L13.7288 14.7774L13.8467 14.8717C14.0588 15.0412 14.9691 15.3326 15.2909 15.334C15.5976 15.3353 15.9091 14.8674 16.829 13.0242C17.3148 12.0508 17.4416 11.7361 17.3478 11.7361C17.3249 11.7361 17.2224 11.7958 17.1199 11.869Z" fill="#53F1A2"/>
<path fill-rule="evenodd" clip-rule="evenodd" d="M1.49527 0.813454C1.48501 0.830096 1.49364 0.971298 1.51445 1.12722C1.53526 1.28318 1.60899 1.96281 1.67822 2.63753C1.81861 4.0051 2.08866 6.35868 2.31164 8.15797C2.39404 8.82277 2.46908 9.64302 2.48237 10.0247L2.50617 10.7056L2.23939 11.1288C2.09267 11.3616 1.80802 11.8097 1.60682 12.1245C1.10434 12.9109 0.245361 14.333 0.245361 14.3783C0.245361 14.3988 0.410035 14.5035 0.611305 14.6111C1.02673 14.8331 1.18609 14.9922 1.18543 15.1844C1.18519 15.2557 1.11179 15.4705 1.02231 15.6617C0.932842 15.8529 0.85944 16.0401 0.859195 16.0779C0.85854 16.1782 1.0922 16.3547 1.60846 16.6438C3.21194 17.5419 3.94991 18.0245 4.97013 18.8422C6.16331 19.7984 7.69595 21.4996 8.71764 23.0018C9.23386 23.7609 9.3234 23.7467 9.05615 22.9482C8.57853 21.5208 7.70779 19.8775 6.75949 18.614C6.16884 17.8269 5.72004 17.3267 4.70744 16.3265C3.95427 15.5825 3.75595 15.3652 3.79467 15.3265C3.8235 15.2977 4.00208 15.2702 4.22228 15.2607C4.60304 15.2443 5.03992 15.3037 5.53541 15.4394C5.68219 15.4796 5.78995 15.4904 5.81305 15.4673C5.87127 15.409 5.44058 14.8331 5.01605 14.4015C4.5747 13.9529 4.07026 13.5357 3.47585 13.1279C3.2397 12.9658 3.05258 12.812 3.06 12.7859C3.07685 12.7268 3.92059 11.3897 4.13995 11.0744C4.2288 10.9467 4.32911 10.8316 4.36279 10.8186C4.45091 10.7848 4.72347 10.9177 5.02541 11.1417C5.2086 11.2776 5.28 11.3129 5.26391 11.2598C5.25131 11.2181 4.98183 10.5688 4.66511 9.81689C4.34836 9.06498 4.08922 8.42677 4.08922 8.39868C4.08922 8.37059 4.26404 8.25304 4.47769 8.13754C4.69137 8.02202 4.86619 7.90878 4.86619 7.88592C4.86619 7.8631 4.76441 7.55822 4.63999 7.20847C4.5156 6.8587 4.42344 6.56292 4.43514 6.5512C4.44687 6.5395 4.59305 6.56961 4.76002 6.6181C5.11309 6.7207 5.15242 6.72435 5.15242 6.65442C5.15242 6.59091 4.62881 5.88498 4.42503 5.67378C4.34365 5.58945 4.28967 5.52042 4.30503 5.52042C4.33069 5.52042 6.01606 6.19581 6.756 6.50262L7.07155 6.63342L7.69653 6.36836C8.46619 6.04193 9.07072 5.84478 9.7119 5.71112C11.724 5.29161 13.7825 5.48342 15.6407 6.26358C15.9103 6.37676 16.2166 6.5128 16.3214 6.56592L16.512 6.6625L17.5897 6.22011C18.8056 5.72093 19.5541 5.43269 19.5764 5.45492C19.6179 5.49648 14.8654 8.32982 14.1533 8.68807C13.8997 8.81565 13.8442 8.78543 13.8931 8.54644C13.937 8.33246 13.9297 8.04473 13.88 8.02782C13.8257 8.00933 13.3049 8.45478 12.4131 9.28251L11.7302 9.91635L11.7542 15.8866C11.7814 22.6342 11.7965 23.4731 11.8913 23.4717C11.9071 23.4714 12.1117 23.2513 12.346 22.9826L12.7719 22.4939L12.9518 22.7479C13.0508 22.8876 13.1465 23.0274 13.1645 23.0585C13.1825 23.0897 13.2687 23.1268 13.3561 23.141C13.5066 23.1654 13.5193 23.1794 13.601 23.4095C13.6484 23.543 13.7081 23.6592 13.7337 23.6677C13.7593 23.6763 13.8573 23.6174 13.9514 23.5368C14.0455 23.4562 14.1376 23.3903 14.1561 23.3903C14.1745 23.3903 14.1896 23.4604 14.1896 23.5461C14.1896 23.6318 14.2173 23.7375 14.2511 23.7812C14.311 23.8584 14.3154 23.8573 14.4174 23.7379C14.475 23.6704 14.7496 23.2748 15.0275 22.8587C15.3054 22.4426 15.6872 21.909 15.8758 21.6728C17.4405 19.714 19.8115 17.7612 21.8917 16.7178C22.473 16.4262 22.7293 16.255 22.7585 16.1386C22.7763 16.0678 22.7149 15.9047 22.5373 15.5504L22.2916 15.0602L22.5445 14.8753C22.6836 14.7737 22.9124 14.6327 23.053 14.5621C23.1974 14.4896 23.3086 14.4068 23.3086 14.3718C23.3086 14.2268 23.0345 13.7571 21.6531 11.534L21.0067 10.4938L21.032 9.95969C21.046 9.66596 21.1135 8.9656 21.182 8.40334C21.5583 5.31719 21.938 1.9025 21.9863 1.17138L22.0129 0.768433L21.5668 1.04376C21.1602 1.29471 20.6607 1.62823 19.7714 2.24251C19.5914 2.36678 18.7468 2.965 17.8944 3.57187L16.3445 4.67532L16.1974 4.63352C16.1164 4.61055 15.7926 4.516 15.4777 4.42341C14.1655 4.03755 13.7489 3.994 11.6048 4.01838C9.74613 4.03952 9.50883 4.06204 8.48514 4.31432C8.17025 4.39193 7.75317 4.50934 7.55823 4.57526L7.20382 4.6951L6.37235 4.10061C4.60132 2.83431 3.70754 2.20861 2.82158 1.61494C1.83051 0.950811 1.52463 0.765978 1.49527 0.813454ZM30.1882 7.5349L29.6059 8.1181V9.14486V10.1716L30.8403 11.8637C31.5191 12.7943 32.2885 13.8502 32.55 14.21C32.8113 14.5699 33.4091 15.3887 33.8779 16.0297C34.6304 17.0584 35.7406 18.5874 35.898 18.8121C35.9536 18.8912 35.9318 18.8922 34.008 18.8922H32.0618L32.0504 18.3095L32.0389 17.7267L30.8225 17.7159L29.6059 17.7051V18.9228V20.1405L30.1893 20.7226L30.7724 21.3048H34.0028H37.2333L37.836 20.7012L38.4387 20.0975V19.0958V18.094L37.9615 17.4401C34.2439 12.3462 32.1731 9.49883 32.1251 9.41541C32.1016 9.3748 32.496 9.3643 34.0405 9.3643H35.985V9.95723V10.5502H37.212H38.4387L38.4384 9.33362L38.4382 8.11709L37.8524 7.53438L37.2665 6.95167H34.0184H30.7705L30.1882 7.5349ZM40.0334 14.1282V21.3048H41.2604H42.4871V19.526V17.7472H45.0739H47.661L48.243 17.1639L48.8253 16.5807V12.3484V8.11602L48.2419 7.53383L47.6588 6.95167H43.8461H40.0334V14.1282ZM49.6756 6.97365C49.6549 6.99452 50.082 8.14739 50.9708 10.4684C51.7282 12.4462 52.4165 14.2525 52.6244 14.8063L52.8327 15.3618V18.3333V21.3048H54.0595H55.2862V18.2838V15.2628L55.6568 14.3071C55.8605 13.7814 56.1903 12.9189 56.3894 12.3903C56.5885 11.8618 56.9626 10.8773 57.2209 10.2026C57.4795 9.52788 57.831 8.60363 58.0025 8.1487C58.1741 7.69376 58.35 7.23831 58.3936 7.13661L58.473 6.95167H57.192H55.9107L55.7337 7.45259C55.6364 7.72812 55.4891 8.16514 55.4062 8.42377C55.3233 8.68242 55.0301 9.5473 54.7549 10.3457C54.4795 11.1441 54.2078 11.9333 54.1514 12.0993C54.0788 12.3116 54.0385 12.3834 54.0147 12.3411C53.9962 12.308 53.8317 11.8409 53.649 11.3031C52.9685 9.29931 52.7981 8.79672 52.5895 8.17842C52.4716 7.82982 52.3284 7.41122 52.2715 7.24812L52.1675 6.95167H50.9326C50.2533 6.95167 49.6876 6.96154 49.6756 6.97365ZM59.4723 7.26858C59.5931 8.77038 59.817 11.4787 59.9684 13.2695C60.1729 15.6867 60.2935 17.1281 60.4781 19.3625C60.5468 20.1946 60.6134 20.9723 60.6262 21.0907L60.6491 21.306L61.9203 21.2952L63.1914 21.2844L63.5934 19.894C64.101 18.1388 64.4864 16.7896 64.6972 16.0299C64.8624 15.4336 64.896 15.3405 64.896 15.4767C64.896 15.5174 65.1087 16.2979 65.3686 17.2112C66.0188 19.4962 66.2103 20.1775 66.372 20.7833L66.5111 21.3046L67.7902 21.3047C68.7769 21.3048 69.0736 21.2931 69.0875 21.2537C69.1044 21.2055 69.2722 19.2265 69.4159 17.3792C69.4516 16.9181 69.507 16.2465 69.5386 15.8866C69.5703 15.5268 69.6889 14.073 69.8021 12.6561C69.9153 11.2392 70.0634 9.42667 70.1313 8.62823C70.1989 7.82982 70.254 7.12594 70.2537 7.06412L70.2529 6.95167H69.0472H67.8417L67.8234 7.04366C67.8134 7.09428 67.7752 7.67852 67.7386 8.34201C67.7021 9.00547 67.6644 9.64952 67.6549 9.77322C67.6456 9.89691 67.6186 10.3662 67.5949 10.816C67.5714 11.2658 67.5344 11.919 67.5123 12.2676C67.4899 12.6162 67.4624 13.0579 67.4506 13.2491C67.4389 13.4402 67.4029 14.0015 67.3707 14.4963C67.3385 14.9911 67.2998 15.6811 67.2845 16.0297C67.2695 16.3783 67.2417 16.6911 67.2226 16.7249C67.194 16.7763 67.1883 16.7746 67.1872 16.7142C67.1861 16.6479 66.7906 14.7585 66.3507 12.7175C66.2514 12.2564 66.1124 11.6031 66.042 11.2658C65.9714 10.9284 65.9043 10.6202 65.8928 10.5809C65.8735 10.5152 65.7881 10.5093 64.8524 10.5093C64.2916 10.5093 63.8326 10.5164 63.8326 10.525C63.8326 10.5647 63.1674 13.7026 62.8088 15.355C62.6771 15.9623 62.553 16.5511 62.5331 16.6635L62.4968 16.868L62.4704 16.6431C62.4434 16.4122 62.4065 15.7989 62.2996 13.8011C62.2661 13.1714 62.2287 12.4997 62.217 12.3085C62.1788 11.6908 62.0782 10.0259 62.0133 8.93494C61.9784 8.35016 61.9418 7.77053 61.932 7.64682C61.9222 7.52312 61.9134 7.31609 61.9124 7.18679L61.9107 6.95167H60.6788H59.4466L59.4723 7.26858ZM72.5116 7.5349L71.9294 8.1181L71.9299 14.1083L71.9302 20.0985L72.5204 20.7017L73.1108 21.3048H76.3554H79.6004L80.1813 20.7189L80.7622 20.133V18.354C80.7622 17.3754 80.7499 14.6643 80.7349 12.3293L80.7076 8.08362L80.157 7.51766L79.6066 6.95167H76.3503H73.0936L72.5116 7.5349ZM82.6023 14.1282V21.3048H86.4057H90.2094L90.1985 20.1087L90.1876 18.9126L87.6014 18.9021L85.0148 18.8916V12.9216V6.95167H83.8085H82.6023V14.1282ZM91.5068 14.1282L91.5172 21.3048H92.7232H93.9294V18.3401V15.3755H95.8923H97.8551V14.1282V12.881H95.8923H93.9294V11.1227V9.3643H95.8923H97.8551V8.15797V6.95167H94.6756H91.4962L91.5068 14.1282ZM42.4871 12.329V15.2937H44.4499H46.4127V12.329V9.3643H44.4499H42.4871V12.329ZM74.3828 14.1275V18.8922H76.3456H78.3084V14.1297V9.36732L76.3456 9.36506L74.3828 9.36288V14.1275ZM6.28669 11.8076C6.43497 12.2433 7.77128 14.7618 8.07311 15.1744C8.24809 15.4136 8.45043 15.5141 8.682 15.477C8.90932 15.4406 9.66188 15.1858 9.90807 15.0619C10.3118 14.8587 10.2661 14.7802 9.25129 13.933C7.63729 12.5857 6.39044 11.6134 6.27652 11.6134C6.23062 11.6134 6.23247 11.6483 6.28669 11.8076ZM17.12 11.8689C16.5692 12.2619 14.1132 14.3386 13.8672 14.6194L13.7288 14.7774L13.8467 14.8717C14.0589 15.0411 14.9692 15.3326 15.291 15.3339C15.5976 15.3353 15.9092 14.8674 16.8291 13.0242C17.3149 12.0507 17.4416 11.736 17.3479 11.736C17.325 11.736 17.2225 11.7958 17.12 11.8689Z" fill="white"/>
</svg>
